<svg width="351" height="50" viewBox="0 0 351 50" fill="none" xmlns="http://www.w3.org/2000/svg">
<ellipse cx="170.964" cy="2.73973" rx="2.73973" ry="3.03571" transform="rotate(90 170.964 2.73973)" fill="white" fill-opacity="0.5"/>
<ellipse cx="161.098" cy="2.73973" rx="2.73973" ry="3.03571" transform="rotate(90 161.098 2.73973)" fill="white" fill-opacity="0.5"/>
<ellipse cx="151.232" cy="2.73973" rx="2.73973" ry="3.03571" transform="rotate(90 151.232 2.73973)" fill="white" fill-opacity="0.5"/>
<ellipse cx="141.366" cy="2.73973" rx="2.73973" ry="3.03571" transform="rotate(90 141.366 2.73973)" fill="white" fill-opacity="0.5"/>
<ellipse cx="131.5" cy="2.73973" rx="2.73973" ry="3.03571" transform="rotate(90 131.5 2.73973)" fill="white" fill-opacity="0.5"/>
<ellipse cx="121.634" cy="2.73973" rx="2.73973" ry="3.03571" transform="rotate(90 121.634 2.73973)" fill="white" fill-opacity="0.5"/>
<ellipse cx="111.768" cy="2.73973" rx="2.73973" ry="3.03571" transform="rotate(90 111.768 2.73973)" fill="white" fill-opacity="0.5"/>
<ellipse cx="101.902" cy="2.73973" rx="2.73973" ry="3.03571" transform="rotate(90 101.902 2.73973)" fill="white" fill-opacity="0.5"/>
<ellipse cx="92.0357" cy="2.73973" rx="2.73973" ry="3.03571" transform="rotate(90 92.0357 2.73973)" fill="white" fill-opacity="0.5"/>
<ellipse cx="170.964" cy="11.6435" rx="2.73973" ry="3.03571" transform="rotate(90 170.964 11.6435)" fill="white" fill-opacity="0.5"/>
<ellipse cx="161.098" cy="11.6435" rx="2.73973" ry="3.03571" transform="rotate(90 161.098 11.6435)" fill="white" fill-opacity="0.5"/>
<ellipse cx="151.232" cy="11.6435" rx="2.73973" ry="3.03571" transform="rotate(90 151.232 11.6435)" fill="white" fill-opacity="0.5"/>
<ellipse cx="141.366" cy="11.6435" rx="2.73973" ry="3.03571" transform="rotate(90 141.366 11.6435)" fill="white" fill-opacity="0.5"/>
<ellipse cx="131.5" cy="11.6435" rx="2.73973" ry="3.03571" transform="rotate(90 131.5 11.6435)" fill="white" fill-opacity="0.5"/>
<ellipse cx="121.634" cy="11.6435" rx="2.73973" ry="3.03571" transform="rotate(90 121.634 11.6435)" fill="white" fill-opacity="0.5"/>
<ellipse cx="111.768" cy="11.6435" rx="2.73973" ry="3.03571" transform="rotate(90 111.768 11.6435)" fill="white" fill-opacity="0.5"/>
<ellipse cx="101.902" cy="11.6435" rx="2.73973" ry="3.03571" transform="rotate(90 101.902 11.6435)" fill="white" fill-opacity="0.5"/>
<ellipse cx="92.0358" cy="11.6435" rx="2.73973" ry="3.03571" transform="rotate(90 92.0358 11.6435)" fill="white" fill-opacity="0.5"/>
<ellipse cx="170.964" cy="20.5478" rx="2.73973" ry="3.03571" transform="rotate(90 170.964 20.5478)" fill="white" fill-opacity="0.5"/>
<ellipse cx="161.098" cy="20.5478" rx="2.73973" ry="3.03571" transform="rotate(90 161.098 20.5478)" fill="white" fill-opacity="0.5"/>
<ellipse cx="151.232" cy="20.5478" rx="2.73973" ry="3.03571" transform="rotate(90 151.232 20.5478)" fill="white" fill-opacity="0.5"/>
<ellipse cx="141.366" cy="20.5478" rx="2.73973" ry="3.03571" transform="rotate(90 141.366 20.5478)" fill="white" fill-opacity="0.5"/>
<ellipse cx="131.5" cy="20.5478" rx="2.73973" ry="3.03571" transform="rotate(90 131.5 20.5478)" fill="white" fill-opacity="0.5"/>
<ellipse cx="121.634" cy="20.5478" rx="2.73973" ry="3.03571" transform="rotate(90 121.634 20.5478)" fill="white" fill-opacity="0.5"/>
<ellipse cx="111.768" cy="20.5478" rx="2.73973" ry="3.03571" transform="rotate(90 111.768 20.5478)" fill="white" fill-opacity="0.5"/>
<ellipse cx="101.902" cy="20.5478" rx="2.73973" ry="3.03571" transform="rotate(90 101.902 20.5478)" fill="white" fill-opacity="0.5"/>
<ellipse cx="92.0358" cy="20.5478" rx="2.73973" ry="3.03571" transform="rotate(90 92.0358 20.5478)" fill="white" fill-opacity="0.5"/>
<ellipse cx="170.964" cy="29.4521" rx="2.73973" ry="3.03571" transform="rotate(90 170.964 29.4521)" fill="white" fill-opacity="0.5"/>
<ellipse cx="161.098" cy="29.4521" rx="2.73973" ry="3.03571" transform="rotate(90 161.098 29.4521)" fill="white" fill-opacity="0.5"/>
<ellipse cx="151.232" cy="29.4521" rx="2.73973" ry="3.03571" transform="rotate(90 151.232 29.4521)" fill="white" fill-opacity="0.5"/>
<ellipse cx="141.366" cy="29.4521" rx="2.73973" ry="3.03571" transform="rotate(90 141.366 29.4521)" fill="white" fill-opacity="0.5"/>
<ellipse cx="131.5" cy="29.4521" rx="2.73973" ry="3.03571" transform="rotate(90 131.5 29.4521)" fill="white" fill-opacity="0.5"/>
<ellipse cx="121.634" cy="29.4521" rx="2.73973" ry="3.03571" transform="rotate(90 121.634 29.4521)" fill="white" fill-opacity="0.5"/>
<ellipse cx="111.768" cy="29.4521" rx="2.73973" ry="3.03571" transform="rotate(90 111.768 29.4521)" fill="white" fill-opacity="0.5"/>
<ellipse cx="101.902" cy="29.4521" rx="2.73973" ry="3.03571" transform="rotate(90 101.902 29.4521)" fill="white" fill-opacity="0.5"/>
<ellipse cx="92.0358" cy="29.4521" rx="2.73973" ry="3.03571" transform="rotate(90 92.0358 29.4521)" fill="white" fill-opacity="0.5"/>
<ellipse cx="170.964" cy="38.3564" rx="2.73973" ry="3.03571" transform="rotate(90 170.964 38.3564)" fill="white" fill-opacity="0.5"/>
<ellipse cx="161.098" cy="38.3564" rx="2.73973" ry="3.03571" transform="rotate(90 161.098 38.3564)" fill="white" fill-opacity="0.5"/>
<ellipse cx="151.232" cy="38.3564" rx="2.73973" ry="3.03571" transform="rotate(90 151.232 38.3564)" fill="white" fill-opacity="0.5"/>
<ellipse cx="141.366" cy="38.3564" rx="2.73973" ry="3.03571" transform="rotate(90 141.366 38.3564)" fill="white" fill-opacity="0.5"/>
<ellipse cx="131.5" cy="38.3564" rx="2.73973" ry="3.03571" transform="rotate(90 131.5 38.3564)" fill="white" fill-opacity="0.5"/>
<ellipse cx="121.634" cy="38.3564" rx="2.73973" ry="3.03571" transform="rotate(90 121.634 38.3564)" fill="white" fill-opacity="0.5"/>
<ellipse cx="111.768" cy="38.3564" rx="2.73973" ry="3.03571" transform="rotate(90 111.768 38.3564)" fill="white" fill-opacity="0.5"/>
<ellipse cx="101.902" cy="38.3564" rx="2.73973" ry="3.03571" transform="rotate(90 101.902 38.3564)" fill="white" fill-opacity="0.5"/>
<ellipse cx="92.0358" cy="38.3564" rx="2.73973" ry="3.03571" transform="rotate(90 92.0358 38.3564)" fill="white" fill-opacity="0.5"/>
<ellipse cx="170.964" cy="47.2602" rx="2.73973" ry="3.03571" transform="rotate(90 170.964 47.2602)" fill="white" fill-opacity="0.5"/>
<ellipse cx="161.098" cy="47.2602" rx="2.73973" ry="3.03571" transform="rotate(90 161.098 47.2602)" fill="white" fill-opacity="0.5"/>
<ellipse cx="151.232" cy="47.2602" rx="2.73973" ry="3.03571" transform="rotate(90 151.232 47.2602)" fill="white" fill-opacity="0.5"/>
<ellipse cx="141.366" cy="47.2602" rx="2.73973" ry="3.03571" transform="rotate(90 141.366 47.2602)" fill="white" fill-opacity="0.5"/>
<ellipse cx="131.5" cy="47.2602" rx="2.73973" ry="3.03571" transform="rotate(90 131.5 47.2602)" fill="white" fill-opacity="0.5"/>
<ellipse cx="121.634" cy="47.2602" rx="2.73973" ry="3.03571" transform="rotate(90 121.634 47.2602)" fill="white" fill-opacity="0.5"/>
<ellipse cx="111.768" cy="47.2602" rx="2.73973" ry="3.03571" transform="rotate(90 111.768 47.2602)" fill="white" fill-opacity="0.5"/>
<ellipse cx="101.902" cy="47.2602" rx="2.73973" ry="3.03571" transform="rotate(90 101.902 47.2602)" fill="white" fill-opacity="0.5"/>
<ellipse cx="92.0358" cy="47.2602" rx="2.73973" ry="3.03571" transform="rotate(90 92.0358 47.2602)" fill="white" fill-opacity="0.5"/>
<ellipse cx="81.9643" cy="2.73973" rx="2.73973" ry="3.03571" transform="rotate(90 81.9643 2.73973)" fill="white" fill-opacity="0.5"/>
<ellipse cx="72.0982" cy="2.73973" rx="2.73973" ry="3.03571" transform="rotate(90 72.0982 2.73973)" fill="white" fill-opacity="0.5"/>
<ellipse cx="62.2321" cy="2.73973" rx="2.73973" ry="3.03571" transform="rotate(90 62.2321 2.73973)" fill="white" fill-opacity="0.5"/>
<ellipse cx="52.3661" cy="2.73973" rx="2.73973" ry="3.03571" transform="rotate(90 52.3661 2.73973)" fill="white" fill-opacity="0.5"/>
<ellipse cx="42.5" cy="2.73973" rx="2.73973" ry="3.03571" transform="rotate(90 42.5 2.73973)" fill="white" fill-opacity="0.5"/>
<ellipse cx="32.634" cy="2.73973" rx="2.73973" ry="3.03571" transform="rotate(90 32.634 2.73973)" fill="white" fill-opacity="0.5"/>
<ellipse cx="22.7679" cy="2.73973" rx="2.73973" ry="3.03571" transform="rotate(90 22.7679 2.73973)" fill="white" fill-opacity="0.5"/>
<ellipse cx="12.9018" cy="2.73973" rx="2.73973" ry="3.03571" transform="rotate(90 12.9018 2.73973)" fill="white" fill-opacity="0.5"/>
<ellipse cx="3.0357" cy="2.73973" rx="2.73973" ry="3.03571" transform="rotate(90 3.0357 2.73973)" fill="white" fill-opacity="0.5"/>
<ellipse cx="81.9643" cy="11.6435" rx="2.73973" ry="3.03571" transform="rotate(90 81.9643 11.6435)" fill="white" fill-opacity="0.5"/>
<ellipse cx="72.0983" cy="11.6435" rx="2.73973" ry="3.03571" transform="rotate(90 72.0983 11.6435)" fill="white" fill-opacity="0.5"/>
<ellipse cx="62.2321" cy="11.6435" rx="2.73973" ry="3.03571" transform="rotate(90 62.2321 11.6435)" fill="white" fill-opacity="0.5"/>
<ellipse cx="52.3661" cy="11.6435" rx="2.73973" ry="3.03571" transform="rotate(90 52.3661 11.6435)" fill="white" fill-opacity="0.5"/>
<ellipse cx="42.4999" cy="11.6435" rx="2.73973" ry="3.03571" transform="rotate(90 42.4999 11.6435)" fill="white" fill-opacity="0.5"/>
<ellipse cx="32.634" cy="11.6435" rx="2.73973" ry="3.03571" transform="rotate(90 32.634 11.6435)" fill="white" fill-opacity="0.5"/>
<ellipse cx="22.7678" cy="11.6435" rx="2.73973" ry="3.03571" transform="rotate(90 22.7678 11.6435)" fill="white" fill-opacity="0.5"/>
<ellipse cx="12.9018" cy="11.6435" rx="2.73973" ry="3.03571" transform="rotate(90 12.9018 11.6435)" fill="white" fill-opacity="0.5"/>
<ellipse cx="3.03582" cy="11.6435" rx="2.73973" ry="3.03571" transform="rotate(90 3.03582 11.6435)" fill="white" fill-opacity="0.5"/>
<ellipse cx="81.9643" cy="20.5478" rx="2.73973" ry="3.03571" transform="rotate(90 81.9643 20.5478)" fill="white" fill-opacity="0.5"/>
<ellipse cx="72.0983" cy="20.5478" rx="2.73973" ry="3.03571" transform="rotate(90 72.0983 20.5478)" fill="white" fill-opacity="0.5"/>
<ellipse cx="62.2321" cy="20.5478" rx="2.73973" ry="3.03571" transform="rotate(90 62.2321 20.5478)" fill="white" fill-opacity="0.5"/>
<ellipse cx="52.3661" cy="20.5478" rx="2.73973" ry="3.03571" transform="rotate(90 52.3661 20.5478)" fill="white" fill-opacity="0.5"/>
<ellipse cx="42.4999" cy="20.5478" rx="2.73973" ry="3.03571" transform="rotate(90 42.4999 20.5478)" fill="white" fill-opacity="0.5"/>
<ellipse cx="32.634" cy="20.5478" rx="2.73973" ry="3.03571" transform="rotate(90 32.634 20.5478)" fill="white" fill-opacity="0.5"/>
<ellipse cx="22.7678" cy="20.5478" rx="2.73973" ry="3.03571" transform="rotate(90 22.7678 20.5478)" fill="white" fill-opacity="0.5"/>
<ellipse cx="12.9018" cy="20.5478" rx="2.73973" ry="3.03571" transform="rotate(90 12.9018 20.5478)" fill="white" fill-opacity="0.5"/>
<ellipse cx="3.03582" cy="20.5478" rx="2.73973" ry="3.03571" transform="rotate(90 3.03582 20.5478)" fill="white" fill-opacity="0.5"/>
<ellipse cx="81.9643" cy="29.4521" rx="2.73973" ry="3.03571" transform="rotate(90 81.9643 29.4521)" fill="white" fill-opacity="0.5"/>
<ellipse cx="72.0983" cy="29.4521" rx="2.73973" ry="3.03571" transform="rotate(90 72.0983 29.4521)" fill="white" fill-opacity="0.5"/>
<ellipse cx="62.2321" cy="29.4521" rx="2.73973" ry="3.03571" transform="rotate(90 62.2321 29.4521)" fill="white" fill-opacity="0.5"/>
<ellipse cx="52.3661" cy="29.4521" rx="2.73973" ry="3.03571" transform="rotate(90 52.3661 29.4521)" fill="white" fill-opacity="0.5"/>
<ellipse cx="42.4999" cy="29.4521" rx="2.73973" ry="3.03571" transform="rotate(90 42.4999 29.4521)" fill="white" fill-opacity="0.5"/>
<ellipse cx="32.634" cy="29.4521" rx="2.73973" ry="3.03571" transform="rotate(90 32.634 29.4521)" fill="white" fill-opacity="0.5"/>
<ellipse cx="22.7678" cy="29.4521" rx="2.73973" ry="3.03571" transform="rotate(90 22.7678 29.4521)" fill="white" fill-opacity="0.5"/>
<ellipse cx="12.9018" cy="29.4521" rx="2.73973" ry="3.03571" transform="rotate(90 12.9018 29.4521)" fill="white" fill-opacity="0.5"/>
<ellipse cx="3.03582" cy="29.4521" rx="2.73973" ry="3.03571" transform="rotate(90 3.03582 29.4521)" fill="white" fill-opacity="0.5"/>
<ellipse cx="81.9643" cy="38.3564" rx="2.73973" ry="3.03571" transform="rotate(90 81.9643 38.3564)" fill="white" fill-opacity="0.5"/>
<ellipse cx="72.0983" cy="38.3564" rx="2.73973" ry="3.03571" transform="rotate(90 72.0983 38.3564)" fill="white" fill-opacity="0.5"/>
<ellipse cx="62.2321" cy="38.3564" rx="2.73973" ry="3.03571" transform="rotate(90 62.2321 38.3564)" fill="white" fill-opacity="0.5"/>
<ellipse cx="52.3661" cy="38.3564" rx="2.73973" ry="3.03571" transform="rotate(90 52.3661 38.3564)" fill="white" fill-opacity="0.5"/>
<ellipse cx="42.4999" cy="38.3564" rx="2.73973" ry="3.03571" transform="rotate(90 42.4999 38.3564)" fill="white" fill-opacity="0.5"/>
<ellipse cx="32.634" cy="38.3564" rx="2.73973" ry="3.03571" transform="rotate(90 32.634 38.3564)" fill="white" fill-opacity="0.5"/>
<ellipse cx="22.7678" cy="38.3564" rx="2.73973" ry="3.03571" transform="rotate(90 22.7678 38.3564)" fill="white" fill-opacity="0.5"/>
<ellipse cx="12.9018" cy="38.3564" rx="2.73973" ry="3.03571" transform="rotate(90 12.9018 38.3564)" fill="white" fill-opacity="0.5"/>
<ellipse cx="3.03582" cy="38.3564" rx="2.73973" ry="3.03571" transform="rotate(90 3.03582 38.3564)" fill="white" fill-opacity="0.5"/>
<ellipse cx="81.9643" cy="47.2602" rx="2.73973" ry="3.03571" transform="rotate(90 81.9643 47.2602)" fill="white" fill-opacity="0.5"/>
<ellipse cx="72.0983" cy="47.2602" rx="2.73973" ry="3.03571" transform="rotate(90 72.0983 47.2602)" fill="white" fill-opacity="0.5"/>
<ellipse cx="62.2321" cy="47.2602" rx="2.73973" ry="3.03571" transform="rotate(90 62.2321 47.2602)" fill="white" fill-opacity="0.5"/>
<ellipse cx="52.3661" cy="47.2602" rx="2.73973" ry="3.03571" transform="rotate(90 52.3661 47.2602)" fill="white" fill-opacity="0.5"/>
<ellipse cx="42.4999" cy="47.2602" rx="2.73973" ry="3.03571" transform="rotate(90 42.4999 47.2602)" fill="white" fill-opacity="0.5"/>
<ellipse cx="32.634" cy="47.2602" rx="2.73973" ry="3.03571" transform="rotate(90 32.634 47.2602)" fill="white" fill-opacity="0.5"/>
<ellipse cx="22.7678" cy="47.2602" rx="2.73973" ry="3.03571" transform="rotate(90 22.7678 47.2602)" fill="white" fill-opacity="0.5"/>
<ellipse cx="12.9018" cy="47.2602" rx="2.73973" ry="3.03571" transform="rotate(90 12.9018 47.2602)" fill="white" fill-opacity="0.5"/>
<ellipse cx="3.03582" cy="47.2602" rx="2.73973" ry="3.03571" transform="rotate(90 3.03582 47.2602)" fill="white" fill-opacity="0.5"/>
<ellipse cx="347.964" cy="2.73973" rx="2.73973" ry="3.03571" transform="rotate(90 347.964 2.73973)" fill="white" fill-opacity="0.5"/>
<ellipse cx="338.098" cy="2.73973" rx="2.73973" ry="3.03571" transform="rotate(90 338.098 2.73973)" fill="white" fill-opacity="0.5"/>
<ellipse cx="328.232" cy="2.73973" rx="2.73973" ry="3.03571" transform="rotate(90 328.232 2.73973)" fill="white" fill-opacity="0.5"/>
<ellipse cx="318.366" cy="2.73973" rx="2.73973" ry="3.03571" transform="rotate(90 318.366 2.73973)" fill="white" fill-opacity="0.5"/>
<ellipse cx="308.5" cy="2.73973" rx="2.73973" ry="3.03571" transform="rotate(90 308.5 2.73973)" fill="white" fill-opacity="0.5"/>
<ellipse cx="298.634" cy="2.73973" rx="2.73973" ry="3.03571" transform="rotate(90 298.634 2.73973)" fill="white" fill-opacity="0.5"/>
<ellipse cx="288.768" cy="2.73973" rx="2.73973" ry="3.03571" transform="rotate(90 288.768 2.73973)" fill="white" fill-opacity="0.5"/>
<ellipse cx="278.902" cy="2.73973" rx="2.73973" ry="3.03571" transform="rotate(90 278.902 2.73973)" fill="white" fill-opacity="0.5"/>
<ellipse cx="269.036" cy="2.73973" rx="2.73973" ry="3.03571" transform="rotate(90 269.036 2.73973)" fill="white" fill-opacity="0.5"/>
<ellipse cx="347.964" cy="11.6435" rx="2.73973" ry="3.03571" transform="rotate(90 347.964 11.6435)" fill="white" fill-opacity="0.5"/>
<ellipse cx="338.098" cy="11.6435" rx="2.73973" ry="3.03571" transform="rotate(90 338.098 11.6435)" fill="white" fill-opacity="0.5"/>
<ellipse cx="328.232" cy="11.6435" rx="2.73973" ry="3.03571" transform="rotate(90 328.232 11.6435)" fill="white" fill-opacity="0.5"/>
<ellipse cx="318.366" cy="11.6435" rx="2.73973" ry="3.03571" transform="rotate(90 318.366 11.6435)" fill="white" fill-opacity="0.5"/>
<ellipse cx="308.5" cy="11.6435" rx="2.73973" ry="3.03571" transform="rotate(90 308.5 11.6435)" fill="white" fill-opacity="0.5"/>
<ellipse cx="298.634" cy="11.6435" rx="2.73973" ry="3.03571" transform="rotate(90 298.634 11.6435)" fill="white" fill-opacity="0.5"/>
<ellipse cx="288.768" cy="11.6435" rx="2.73973" ry="3.03571" transform="rotate(90 288.768 11.6435)" fill="white" fill-opacity="0.5"/>
<ellipse cx="278.902" cy="11.6435" rx="2.73973" ry="3.03571" transform="rotate(90 278.902 11.6435)" fill="white" fill-opacity="0.5"/>
<ellipse cx="269.036" cy="11.6435" rx="2.73973" ry="3.03571" transform="rotate(90 269.036 11.6435)" fill="white" fill-opacity="0.5"/>
<ellipse cx="347.964" cy="20.5478" rx="2.73973" ry="3.03571" transform="rotate(90 347.964 20.5478)" fill="white" fill-opacity="0.5"/>
<ellipse cx="338.098" cy="20.5478" rx="2.73973" ry="3.03571" transform="rotate(90 338.098 20.5478)" fill="white" fill-opacity="0.5"/>
<ellipse cx="328.232" cy="20.5478" rx="2.73973" ry="3.03571" transform="rotate(90 328.232 20.5478)" fill="white" fill-opacity="0.5"/>
<ellipse cx="318.366" cy="20.5478" rx="2.73973" ry="3.03571" transform="rotate(90 318.366 20.5478)" fill="white" fill-opacity="0.5"/>
<ellipse cx="308.5" cy="20.5478" rx="2.73973" ry="3.03571" transform="rotate(90 308.5 20.5478)" fill="white" fill-opacity="0.5"/>
<ellipse cx="298.634" cy="20.5478" rx="2.73973" ry="3.03571" transform="rotate(90 298.634 20.5478)" fill="white" fill-opacity="0.5"/>
<ellipse cx="288.768" cy="20.5478" rx="2.73973" ry="3.03571" transform="rotate(90 288.768 20.5478)" fill="white" fill-opacity="0.5"/>
<ellipse cx="278.902" cy="20.5478" rx="2.73973" ry="3.03571" transform="rotate(90 278.902 20.5478)" fill="white" fill-opacity="0.5"/>
<ellipse cx="269.036" cy="20.5478" rx="2.73973" ry="3.03571" transform="rotate(90 269.036 20.5478)" fill="white" fill-opacity="0.5"/>
<ellipse cx="347.964" cy="29.4521" rx="2.73973" ry="3.03571" transform="rotate(90 347.964 29.4521)" fill="white" fill-opacity="0.5"/>
<ellipse cx="338.098" cy="29.4521" rx="2.73973" ry="3.03571" transform="rotate(90 338.098 29.4521)" fill="white" fill-opacity="0.5"/>
<ellipse cx="328.232" cy="29.4521" rx="2.73973" ry="3.03571" transform="rotate(90 328.232 29.4521)" fill="white" fill-opacity="0.5"/>
<ellipse cx="318.366" cy="29.4521" rx="2.73973" ry="3.03571" transform="rotate(90 318.366 29.4521)" fill="white" fill-opacity="0.5"/>
<ellipse cx="308.5" cy="29.4521" rx="2.73973" ry="3.03571" transform="rotate(90 308.5 29.4521)" fill="white" fill-opacity="0.5"/>
<ellipse cx="298.634" cy="29.4521" rx="2.73973" ry="3.03571" transform="rotate(90 298.634 29.4521)" fill="white" fill-opacity="0.5"/>
<ellipse cx="288.768" cy="29.4521" rx="2.73973" ry="3.03571" transform="rotate(90 288.768 29.4521)" fill="white" fill-opacity="0.5"/>
<ellipse cx="278.902" cy="29.4521" rx="2.73973" ry="3.03571" transform="rotate(90 278.902 29.4521)" fill="white" fill-opacity="0.5"/>
<ellipse cx="269.036" cy="29.4521" rx="2.73973" ry="3.03571" transform="rotate(90 269.036 29.4521)" fill="white" fill-opacity="0.5"/>
<ellipse cx="347.964" cy="38.3564" rx="2.73973" ry="3.03571" transform="rotate(90 347.964 38.3564)" fill="white" fill-opacity="0.5"/>
<ellipse cx="338.098" cy="38.3564" rx="2.73973" ry="3.03571" transform="rotate(90 338.098 38.3564)" fill="white" fill-opacity="0.5"/>
<ellipse cx="328.232" cy="38.3564" rx="2.73973" ry="3.03571" transform="rotate(90 328.232 38.3564)" fill="white" fill-opacity="0.5"/>
<ellipse cx="318.366" cy="38.3564" rx="2.73973" ry="3.03571" transform="rotate(90 318.366 38.3564)" fill="white" fill-opacity="0.5"/>
<ellipse cx="308.5" cy="38.3564" rx="2.73973" ry="3.03571" transform="rotate(90 308.5 38.3564)" fill="white" fill-opacity="0.5"/>
<ellipse cx="298.634" cy="38.3564" rx="2.73973" ry="3.03571" transform="rotate(90 298.634 38.3564)" fill="white" fill-opacity="0.5"/>
<ellipse cx="288.768" cy="38.3564" rx="2.73973" ry="3.03571" transform="rotate(90 288.768 38.3564)" fill="white" fill-opacity="0.5"/>
<ellipse cx="278.902" cy="38.3564" rx="2.73973" ry="3.03571" transform="rotate(90 278.902 38.3564)" fill="white" fill-opacity="0.5"/>
<ellipse cx="269.036" cy="38.3564" rx="2.73973" ry="3.03571" transform="rotate(90 269.036 38.3564)" fill="white" fill-opacity="0.5"/>
<ellipse cx="347.964" cy="47.2602" rx="2.73973" ry="3.03571" transform="rotate(90 347.964 47.2602)" fill="white" fill-opacity="0.5"/>
<ellipse cx="338.098" cy="47.2602" rx="2.73973" ry="3.03571" transform="rotate(90 338.098 47.2602)" fill="white" fill-opacity="0.5"/>
<ellipse cx="328.232" cy="47.2602" rx="2.73973" ry="3.03571" transform="rotate(90 328.232 47.2602)" fill="white" fill-opacity="0.5"/>
<ellipse cx="318.366" cy="47.2602" rx="2.73973" ry="3.03571" transform="rotate(90 318.366 47.2602)" fill="white" fill-opacity="0.5"/>
<ellipse cx="308.5" cy="47.2602" rx="2.73973" ry="3.03571" transform="rotate(90 308.5 47.2602)" fill="white" fill-opacity="0.5"/>
<ellipse cx="298.634" cy="47.2602" rx="2.73973" ry="3.03571" transform="rotate(90 298.634 47.2602)" fill="white" fill-opacity="0.5"/>
<ellipse cx="288.768" cy="47.2602" rx="2.73973" ry="3.03571" transform="rotate(90 288.768 47.2602)" fill="white" fill-opacity="0.5"/>
<ellipse cx="278.902" cy="47.2602" rx="2.73973" ry="3.03571" transform="rotate(90 278.902 47.2602)" fill="white" fill-opacity="0.5"/>
<ellipse cx="269.036" cy="47.2602" rx="2.73973" ry="3.03571" transform="rotate(90 269.036 47.2602)" fill="white" fill-opacity="0.5"/>
<ellipse cx="258.964" cy="2.73973" rx="2.73973" ry="3.03571" transform="rotate(90 258.964 2.73973)" fill="white" fill-opacity="0.5"/>
<ellipse cx="249.098" cy="2.73973" rx="2.73973" ry="3.03571" transform="rotate(90 249.098 2.73973)" fill="white" fill-opacity="0.5"/>
<ellipse cx="239.232" cy="2.73973" rx="2.73973" ry="3.03571" transform="rotate(90 239.232 2.73973)" fill="white" fill-opacity="0.5"/>
<ellipse cx="229.366" cy="2.73973" rx="2.73973" ry="3.03571" transform="rotate(90 229.366 2.73973)" fill="white" fill-opacity="0.5"/>
<ellipse cx="219.5" cy="2.73973" rx="2.73973" ry="3.03571" transform="rotate(90 219.5 2.73973)" fill="white" fill-opacity="0.5"/>
<ellipse cx="209.634" cy="2.73973" rx="2.73973" ry="3.03571" transform="rotate(90 209.634 2.73973)" fill="white" fill-opacity="0.5"/>
<ellipse cx="199.768" cy="2.73973" rx="2.73973" ry="3.03571" transform="rotate(90 199.768 2.73973)" fill="white" fill-opacity="0.5"/>
<ellipse cx="189.902" cy="2.73973" rx="2.73973" ry="3.03571" transform="rotate(90 189.902 2.73973)" fill="white" fill-opacity="0.5"/>
<ellipse cx="180.036" cy="2.73973" rx="2.73973" ry="3.03571" transform="rotate(90 180.036 2.73973)" fill="white" fill-opacity="0.5"/>
<ellipse cx="258.964" cy="11.6435" rx="2.73973" ry="3.03571" transform="rotate(90 258.964 11.6435)" fill="white" fill-opacity="0.5"/>
<ellipse cx="249.098" cy="11.6435" rx="2.73973" ry="3.03571" transform="rotate(90 249.098 11.6435)" fill="white" fill-opacity="0.5"/>
<ellipse cx="239.232" cy="11.6435" rx="2.73973" ry="3.03571" transform="rotate(90 239.232 11.6435)" fill="white" fill-opacity="0.5"/>
<ellipse cx="229.366" cy="11.6435" rx="2.73973" ry="3.03571" transform="rotate(90 229.366 11.6435)" fill="white" fill-opacity="0.5"/>
<ellipse cx="219.5" cy="11.6435" rx="2.73973" ry="3.03571" transform="rotate(90 219.5 11.6435)" fill="white" fill-opacity="0.5"/>
<ellipse cx="209.634" cy="11.6435" rx="2.73973" ry="3.03571" transform="rotate(90 209.634 11.6435)" fill="white" fill-opacity="0.5"/>
<ellipse cx="199.768" cy="11.6435" rx="2.73973" ry="3.03571" transform="rotate(90 199.768 11.6435)" fill="white" fill-opacity="0.5"/>
<ellipse cx="189.902" cy="11.6435" rx="2.73973" ry="3.03571" transform="rotate(90 189.902 11.6435)" fill="white" fill-opacity="0.5"/>
<ellipse cx="180.036" cy="11.6435" rx="2.73973" ry="3.03571" transform="rotate(90 180.036 11.6435)" fill="white" fill-opacity="0.5"/>
<ellipse cx="258.964" cy="20.5478" rx="2.73973" ry="3.03571" transform="rotate(90 258.964 20.5478)" fill="white" fill-opacity="0.5"/>
<ellipse cx="249.098" cy="20.5478" rx="2.73973" ry="3.03571" transform="rotate(90 249.098 20.5478)" fill="white" fill-opacity="0.5"/>
<ellipse cx="239.232" cy="20.5478" rx="2.73973" ry="3.03571" transform="rotate(90 239.232 20.5478)" fill="white" fill-opacity="0.5"/>
<ellipse cx="229.366" cy="20.5478" rx="2.73973" ry="3.03571" transform="rotate(90 229.366 20.5478)" fill="white" fill-opacity="0.5"/>
<ellipse cx="219.5" cy="20.5478" rx="2.73973" ry="3.03571" transform="rotate(90 219.5 20.5478)" fill="white" fill-opacity="0.5"/>
<ellipse cx="209.634" cy="20.5478" rx="2.73973" ry="3.03571" transform="rotate(90 209.634 20.5478)" fill="white" fill-opacity="0.5"/>
<ellipse cx="199.768" cy="20.5478" rx="2.73973" ry="3.03571" transform="rotate(90 199.768 20.5478)" fill="white" fill-opacity="0.5"/>
<ellipse cx="189.902" cy="20.5478" rx="2.73973" ry="3.03571" transform="rotate(90 189.902 20.5478)" fill="white" fill-opacity="0.5"/>
<ellipse cx="180.036" cy="20.5478" rx="2.73973" ry="3.03571" transform="rotate(90 180.036 20.5478)" fill="white" fill-opacity="0.5"/>
<ellipse cx="258.964" cy="29.4521" rx="2.73973" ry="3.03571" transform="rotate(90 258.964 29.4521)" fill="white" fill-opacity="0.5"/>
<ellipse cx="249.098" cy="29.4521" rx="2.73973" ry="3.03571" transform="rotate(90 249.098 29.4521)" fill="white" fill-opacity="0.5"/>
<ellipse cx="239.232" cy="29.4521" rx="2.73973" ry="3.03571" transform="rotate(90 239.232 29.4521)" fill="white" fill-opacity="0.5"/>
<ellipse cx="229.366" cy="29.4521" rx="2.73973" ry="3.03571" transform="rotate(90 229.366 29.4521)" fill="white" fill-opacity="0.5"/>
<ellipse cx="219.5" cy="29.4521" rx="2.73973" ry="3.03571" transform="rotate(90 219.5 29.4521)" fill="white" fill-opacity="0.5"/>
<ellipse cx="209.634" cy="29.4521" rx="2.73973" ry="3.03571" transform="rotate(90 209.634 29.4521)" fill="white" fill-opacity="0.5"/>
<ellipse cx="199.768" cy="29.4521" rx="2.73973" ry="3.03571" transform="rotate(90 199.768 29.4521)" fill="white" fill-opacity="0.5"/>
<ellipse cx="189.902" cy="29.4521" rx="2.73973" ry="3.03571" transform="rotate(90 189.902 29.4521)" fill="white" fill-opacity="0.5"/>
<ellipse cx="180.036" cy="29.4521" rx="2.73973" ry="3.03571" transform="rotate(90 180.036 29.4521)" fill="white" fill-opacity="0.5"/>
<ellipse cx="258.964" cy="38.3564" rx="2.73973" ry="3.03571" transform="rotate(90 258.964 38.3564)" fill="white" fill-opacity="0.5"/>
<ellipse cx="249.098" cy="38.3564" rx="2.73973" ry="3.03571" transform="rotate(90 249.098 38.3564)" fill="white" fill-opacity="0.5"/>
<ellipse cx="239.232" cy="38.3564" rx="2.73973" ry="3.03571" transform="rotate(90 239.232 38.3564)" fill="white" fill-opacity="0.5"/>
<ellipse cx="229.366" cy="38.3564" rx="2.73973" ry="3.03571" transform="rotate(90 229.366 38.3564)" fill="white" fill-opacity="0.5"/>
<ellipse cx="219.5" cy="38.3564" rx="2.73973" ry="3.03571" transform="rotate(90 219.5 38.3564)" fill="white" fill-opacity="0.5"/>
<ellipse cx="209.634" cy="38.3564" rx="2.73973" ry="3.03571" transform="rotate(90 209.634 38.3564)" fill="white" fill-opacity="0.5"/>
<ellipse cx="199.768" cy="38.3564" rx="2.73973" ry="3.03571" transform="rotate(90 199.768 38.3564)" fill="white" fill-opacity="0.5"/>
<ellipse cx="189.902" cy="38.3564" rx="2.73973" ry="3.03571" transform="rotate(90 189.902 38.3564)" fill="white" fill-opacity="0.5"/>
<ellipse cx="180.036" cy="38.3564" rx="2.73973" ry="3.03571" transform="rotate(90 180.036 38.3564)" fill="white" fill-opacity="0.5"/>
<ellipse cx="258.964" cy="47.2602" rx="2.73973" ry="3.03571" transform="rotate(90 258.964 47.2602)" fill="white" fill-opacity="0.5"/>
<ellipse cx="249.098" cy="47.2602" rx="2.73973" ry="3.03571" transform="rotate(90 249.098 47.2602)" fill="white" fill-opacity="0.5"/>
<ellipse cx="239.232" cy="47.2602" rx="2.73973" ry="3.03571" transform="rotate(90 239.232 47.2602)" fill="white" fill-opacity="0.5"/>
<ellipse cx="229.366" cy="47.2602" rx="2.73973" ry="3.03571" transform="rotate(90 229.366 47.2602)" fill="white" fill-opacity="0.5"/>
<ellipse cx="219.5" cy="47.2602" rx="2.73973" ry="3.03571" transform="rotate(90 219.5 47.2602)" fill="white" fill-opacity="0.5"/>
<ellipse cx="209.634" cy="47.2602" rx="2.73973" ry="3.03571" transform="rotate(90 209.634 47.2602)" fill="white" fill-opacity="0.5"/>
<ellipse cx="199.768" cy="47.2602" rx="2.73973" ry="3.03571" transform="rotate(90 199.768 47.2602)" fill="white" fill-opacity="0.5"/>
<ellipse cx="189.902" cy="47.2602" rx="2.73973" ry="3.03571" transform="rotate(90 189.902 47.2602)" fill="white" fill-opacity="0.5"/>
<ellipse cx="180.036" cy="47.2602" rx="2.73973" ry="3.03571" transform="rotate(90 180.036 47.2602)" fill="white" fill-opacity="0.5"/>
</svg>
