<svg width="160" height="50" viewBox="0 0 160 50" fill="none" xmlns="http://www.w3.org/2000/svg">
<ellipse cx="157.209" cy="2.73973" rx="2.73973" ry="2.79146" transform="rotate(90 157.209 2.73973)" fill="white" fill-opacity="0.5"/>
<ellipse cx="148.136" cy="2.73973" rx="2.73973" ry="2.79146" transform="rotate(90 148.136 2.73973)" fill="white" fill-opacity="0.5"/>
<ellipse cx="139.064" cy="2.73973" rx="2.73973" ry="2.79146" transform="rotate(90 139.064 2.73973)" fill="white" fill-opacity="0.5"/>
<ellipse cx="129.992" cy="2.73973" rx="2.73973" ry="2.79146" transform="rotate(90 129.992 2.73973)" fill="white" fill-opacity="0.5"/>
<ellipse cx="120.92" cy="2.73973" rx="2.73973" ry="2.79146" transform="rotate(90 120.92 2.73973)" fill="white" fill-opacity="0.5"/>
<ellipse cx="111.847" cy="2.73973" rx="2.73973" ry="2.79146" transform="rotate(90 111.847 2.73973)" fill="white" fill-opacity="0.5"/>
<ellipse cx="102.775" cy="2.73973" rx="2.73973" ry="2.79146" transform="rotate(90 102.775 2.73973)" fill="white" fill-opacity="0.5"/>
<ellipse cx="93.7028" cy="2.73973" rx="2.73973" ry="2.79146" transform="rotate(90 93.7028 2.73973)" fill="white" fill-opacity="0.5"/>
<ellipse cx="84.6305" cy="2.73973" rx="2.73973" ry="2.79146" transform="rotate(90 84.6305 2.73973)" fill="white" fill-opacity="0.5"/>
<ellipse cx="157.209" cy="11.6437" rx="2.73973" ry="2.79146" transform="rotate(90 157.209 11.6437)" fill="white" fill-opacity="0.5"/>
<ellipse cx="148.136" cy="11.6437" rx="2.73973" ry="2.79146" transform="rotate(90 148.136 11.6437)" fill="white" fill-opacity="0.5"/>
<ellipse cx="139.064" cy="11.6437" rx="2.73973" ry="2.79146" transform="rotate(90 139.064 11.6437)" fill="white" fill-opacity="0.5"/>
<ellipse cx="129.992" cy="11.6437" rx="2.73973" ry="2.79146" transform="rotate(90 129.992 11.6437)" fill="white" fill-opacity="0.5"/>
<ellipse cx="120.919" cy="11.6437" rx="2.73973" ry="2.79146" transform="rotate(90 120.919 11.6437)" fill="white" fill-opacity="0.5"/>
<ellipse cx="111.847" cy="11.6437" rx="2.73973" ry="2.79146" transform="rotate(90 111.847 11.6437)" fill="white" fill-opacity="0.5"/>
<ellipse cx="102.775" cy="11.6437" rx="2.73973" ry="2.79146" transform="rotate(90 102.775 11.6437)" fill="white" fill-opacity="0.5"/>
<ellipse cx="93.7028" cy="11.6437" rx="2.73973" ry="2.79146" transform="rotate(90 93.7028 11.6437)" fill="white" fill-opacity="0.5"/>
<ellipse cx="84.6307" cy="11.6437" rx="2.73973" ry="2.79146" transform="rotate(90 84.6307 11.6437)" fill="white" fill-opacity="0.5"/>
<ellipse cx="157.209" cy="20.548" rx="2.73973" ry="2.79146" transform="rotate(90 157.209 20.548)" fill="white" fill-opacity="0.5"/>
<ellipse cx="148.136" cy="20.548" rx="2.73973" ry="2.79146" transform="rotate(90 148.136 20.548)" fill="white" fill-opacity="0.5"/>
<ellipse cx="139.064" cy="20.548" rx="2.73973" ry="2.79146" transform="rotate(90 139.064 20.548)" fill="white" fill-opacity="0.5"/>
<ellipse cx="129.992" cy="20.548" rx="2.73973" ry="2.79146" transform="rotate(90 129.992 20.548)" fill="white" fill-opacity="0.5"/>
<ellipse cx="120.919" cy="20.548" rx="2.73973" ry="2.79146" transform="rotate(90 120.919 20.548)" fill="white" fill-opacity="0.5"/>
<ellipse cx="111.847" cy="20.548" rx="2.73973" ry="2.79146" transform="rotate(90 111.847 20.548)" fill="white" fill-opacity="0.5"/>
<ellipse cx="102.775" cy="20.548" rx="2.73973" ry="2.79146" transform="rotate(90 102.775 20.548)" fill="white" fill-opacity="0.5"/>
<ellipse cx="93.7028" cy="20.548" rx="2.73973" ry="2.79146" transform="rotate(90 93.7028 20.548)" fill="white" fill-opacity="0.5"/>
<ellipse cx="84.6307" cy="20.548" rx="2.73973" ry="2.79146" transform="rotate(90 84.6307 20.548)" fill="white" fill-opacity="0.5"/>
<ellipse cx="157.209" cy="29.452" rx="2.73973" ry="2.79146" transform="rotate(90 157.209 29.452)" fill="white" fill-opacity="0.5"/>
<ellipse cx="148.136" cy="29.452" rx="2.73973" ry="2.79146" transform="rotate(90 148.136 29.452)" fill="white" fill-opacity="0.5"/>
<ellipse cx="139.064" cy="29.452" rx="2.73973" ry="2.79146" transform="rotate(90 139.064 29.452)" fill="white" fill-opacity="0.5"/>
<ellipse cx="129.992" cy="29.452" rx="2.73973" ry="2.79146" transform="rotate(90 129.992 29.452)" fill="white" fill-opacity="0.5"/>
<ellipse cx="120.919" cy="29.452" rx="2.73973" ry="2.79146" transform="rotate(90 120.919 29.452)" fill="white" fill-opacity="0.5"/>
<ellipse cx="111.847" cy="29.452" rx="2.73973" ry="2.79146" transform="rotate(90 111.847 29.452)" fill="white" fill-opacity="0.5"/>
<ellipse cx="102.775" cy="29.452" rx="2.73973" ry="2.79146" transform="rotate(90 102.775 29.452)" fill="white" fill-opacity="0.5"/>
<ellipse cx="93.7028" cy="29.452" rx="2.73973" ry="2.79146" transform="rotate(90 93.7028 29.452)" fill="white" fill-opacity="0.5"/>
<ellipse cx="84.6307" cy="29.452" rx="2.73973" ry="2.79146" transform="rotate(90 84.6307 29.452)" fill="white" fill-opacity="0.5"/>
<ellipse cx="157.209" cy="38.3562" rx="2.73973" ry="2.79146" transform="rotate(90 157.209 38.3562)" fill="white" fill-opacity="0.5"/>
<ellipse cx="148.136" cy="38.3562" rx="2.73973" ry="2.79146" transform="rotate(90 148.136 38.3562)" fill="white" fill-opacity="0.5"/>
<ellipse cx="139.064" cy="38.3562" rx="2.73973" ry="2.79146" transform="rotate(90 139.064 38.3562)" fill="white" fill-opacity="0.5"/>
<ellipse cx="129.992" cy="38.3562" rx="2.73973" ry="2.79146" transform="rotate(90 129.992 38.3562)" fill="white" fill-opacity="0.5"/>
<ellipse cx="120.919" cy="38.3562" rx="2.73973" ry="2.79146" transform="rotate(90 120.919 38.3562)" fill="white" fill-opacity="0.5"/>
<ellipse cx="111.847" cy="38.3562" rx="2.73973" ry="2.79146" transform="rotate(90 111.847 38.3562)" fill="white" fill-opacity="0.5"/>
<ellipse cx="102.775" cy="38.3562" rx="2.73973" ry="2.79146" transform="rotate(90 102.775 38.3562)" fill="white" fill-opacity="0.5"/>
<ellipse cx="93.7028" cy="38.3562" rx="2.73973" ry="2.79146" transform="rotate(90 93.7028 38.3562)" fill="white" fill-opacity="0.5"/>
<ellipse cx="84.6307" cy="38.3562" rx="2.73973" ry="2.79146" transform="rotate(90 84.6307 38.3562)" fill="white" fill-opacity="0.5"/>
<ellipse cx="157.209" cy="47.2602" rx="2.73973" ry="2.79146" transform="rotate(90 157.209 47.2602)" fill="white" fill-opacity="0.5"/>
<ellipse cx="148.136" cy="47.2602" rx="2.73973" ry="2.79146" transform="rotate(90 148.136 47.2602)" fill="white" fill-opacity="0.5"/>
<ellipse cx="139.064" cy="47.2602" rx="2.73973" ry="2.79146" transform="rotate(90 139.064 47.2602)" fill="white" fill-opacity="0.5"/>
<ellipse cx="129.992" cy="47.2602" rx="2.73973" ry="2.79146" transform="rotate(90 129.992 47.2602)" fill="white" fill-opacity="0.5"/>
<ellipse cx="120.919" cy="47.2602" rx="2.73973" ry="2.79146" transform="rotate(90 120.919 47.2602)" fill="white" fill-opacity="0.5"/>
<ellipse cx="111.847" cy="47.2602" rx="2.73973" ry="2.79146" transform="rotate(90 111.847 47.2602)" fill="white" fill-opacity="0.5"/>
<ellipse cx="102.775" cy="47.2602" rx="2.73973" ry="2.79146" transform="rotate(90 102.775 47.2602)" fill="white" fill-opacity="0.5"/>
<ellipse cx="93.7028" cy="47.2602" rx="2.73973" ry="2.79146" transform="rotate(90 93.7028 47.2602)" fill="white" fill-opacity="0.5"/>
<ellipse cx="84.6307" cy="47.2602" rx="2.73973" ry="2.79146" transform="rotate(90 84.6307 47.2602)" fill="white" fill-opacity="0.5"/>
<ellipse cx="75.3693" cy="2.73973" rx="2.73973" ry="2.79146" transform="rotate(90 75.3693 2.73973)" fill="white" fill-opacity="0.5"/>
<ellipse cx="66.297" cy="2.73973" rx="2.73973" ry="2.79146" transform="rotate(90 66.297 2.73973)" fill="white" fill-opacity="0.5"/>
<ellipse cx="57.2248" cy="2.73973" rx="2.73973" ry="2.79146" transform="rotate(90 57.2248 2.73973)" fill="white" fill-opacity="0.5"/>
<ellipse cx="48.1526" cy="2.73973" rx="2.73973" ry="2.79146" transform="rotate(90 48.1526 2.73973)" fill="white" fill-opacity="0.5"/>
<ellipse cx="39.0804" cy="2.73973" rx="2.73973" ry="2.79146" transform="rotate(90 39.0804 2.73973)" fill="white" fill-opacity="0.5"/>
<ellipse cx="30.0082" cy="2.73973" rx="2.73973" ry="2.79146" transform="rotate(90 30.0082 2.73973)" fill="white" fill-opacity="0.5"/>
<ellipse cx="20.936" cy="2.73973" rx="2.73973" ry="2.79146" transform="rotate(90 20.936 2.73973)" fill="white" fill-opacity="0.5"/>
<ellipse cx="11.8636" cy="2.73973" rx="2.73973" ry="2.79146" transform="rotate(90 11.8636 2.73973)" fill="white" fill-opacity="0.5"/>
<ellipse cx="2.7913" cy="2.73973" rx="2.73973" ry="2.79146" transform="rotate(90 2.7913 2.73973)" fill="white" fill-opacity="0.5"/>
<ellipse cx="75.3693" cy="11.6437" rx="2.73973" ry="2.79146" transform="rotate(90 75.3693 11.6437)" fill="white" fill-opacity="0.5"/>
<ellipse cx="66.2972" cy="11.6437" rx="2.73973" ry="2.79146" transform="rotate(90 66.2972 11.6437)" fill="white" fill-opacity="0.5"/>
<ellipse cx="57.2248" cy="11.6437" rx="2.73973" ry="2.79146" transform="rotate(90 57.2248 11.6437)" fill="white" fill-opacity="0.5"/>
<ellipse cx="48.1528" cy="11.6437" rx="2.73973" ry="2.79146" transform="rotate(90 48.1528 11.6437)" fill="white" fill-opacity="0.5"/>
<ellipse cx="39.0804" cy="11.6437" rx="2.73973" ry="2.79146" transform="rotate(90 39.0804 11.6437)" fill="white" fill-opacity="0.5"/>
<ellipse cx="30.0082" cy="11.6437" rx="2.73973" ry="2.79146" transform="rotate(90 30.0082 11.6437)" fill="white" fill-opacity="0.5"/>
<ellipse cx="20.9358" cy="11.6437" rx="2.73973" ry="2.79146" transform="rotate(90 20.9358 11.6437)" fill="white" fill-opacity="0.5"/>
<ellipse cx="11.8637" cy="11.6437" rx="2.73973" ry="2.79146" transform="rotate(90 11.8637 11.6437)" fill="white" fill-opacity="0.5"/>
<ellipse cx="2.79142" cy="11.6437" rx="2.73973" ry="2.79146" transform="rotate(90 2.79142 11.6437)" fill="white" fill-opacity="0.5"/>
<ellipse cx="75.3693" cy="20.548" rx="2.73973" ry="2.79146" transform="rotate(90 75.3693 20.548)" fill="white" fill-opacity="0.5"/>
<ellipse cx="66.2972" cy="20.548" rx="2.73973" ry="2.79146" transform="rotate(90 66.2972 20.548)" fill="white" fill-opacity="0.5"/>
<ellipse cx="57.2248" cy="20.548" rx="2.73973" ry="2.79146" transform="rotate(90 57.2248 20.548)" fill="white" fill-opacity="0.5"/>
<ellipse cx="48.1528" cy="20.548" rx="2.73973" ry="2.79146" transform="rotate(90 48.1528 20.548)" fill="white" fill-opacity="0.5"/>
<ellipse cx="39.0804" cy="20.548" rx="2.73973" ry="2.79146" transform="rotate(90 39.0804 20.548)" fill="white" fill-opacity="0.5"/>
<ellipse cx="30.0082" cy="20.548" rx="2.73973" ry="2.79146" transform="rotate(90 30.0082 20.548)" fill="white" fill-opacity="0.5"/>
<ellipse cx="20.9358" cy="20.548" rx="2.73973" ry="2.79146" transform="rotate(90 20.9358 20.548)" fill="white" fill-opacity="0.5"/>
<ellipse cx="11.8637" cy="20.548" rx="2.73973" ry="2.79146" transform="rotate(90 11.8637 20.548)" fill="white" fill-opacity="0.5"/>
<ellipse cx="2.79142" cy="20.548" rx="2.73973" ry="2.79146" transform="rotate(90 2.79142 20.548)" fill="white" fill-opacity="0.5"/>
<ellipse cx="75.3693" cy="29.452" rx="2.73973" ry="2.79146" transform="rotate(90 75.3693 29.452)" fill="white" fill-opacity="0.5"/>
<ellipse cx="66.2972" cy="29.452" rx="2.73973" ry="2.79146" transform="rotate(90 66.2972 29.452)" fill="white" fill-opacity="0.5"/>
<ellipse cx="57.2248" cy="29.452" rx="2.73973" ry="2.79146" transform="rotate(90 57.2248 29.452)" fill="white" fill-opacity="0.5"/>
<ellipse cx="48.1528" cy="29.452" rx="2.73973" ry="2.79146" transform="rotate(90 48.1528 29.452)" fill="white" fill-opacity="0.5"/>
<ellipse cx="39.0804" cy="29.452" rx="2.73973" ry="2.79146" transform="rotate(90 39.0804 29.452)" fill="white" fill-opacity="0.5"/>
<ellipse cx="30.0082" cy="29.452" rx="2.73973" ry="2.79146" transform="rotate(90 30.0082 29.452)" fill="white" fill-opacity="0.5"/>
<ellipse cx="20.9358" cy="29.452" rx="2.73973" ry="2.79146" transform="rotate(90 20.9358 29.452)" fill="white" fill-opacity="0.5"/>
<ellipse cx="11.8637" cy="29.452" rx="2.73973" ry="2.79146" transform="rotate(90 11.8637 29.452)" fill="white" fill-opacity="0.5"/>
<ellipse cx="2.79155" cy="29.452" rx="2.73973" ry="2.79146" transform="rotate(90 2.79155 29.452)" fill="white" fill-opacity="0.5"/>
<ellipse cx="75.3693" cy="38.3562" rx="2.73973" ry="2.79146" transform="rotate(90 75.3693 38.3562)" fill="white" fill-opacity="0.5"/>
<ellipse cx="66.2972" cy="38.3562" rx="2.73973" ry="2.79146" transform="rotate(90 66.2972 38.3562)" fill="white" fill-opacity="0.5"/>
<ellipse cx="57.2248" cy="38.3562" rx="2.73973" ry="2.79146" transform="rotate(90 57.2248 38.3562)" fill="white" fill-opacity="0.5"/>
<ellipse cx="48.1528" cy="38.3562" rx="2.73973" ry="2.79146" transform="rotate(90 48.1528 38.3562)" fill="white" fill-opacity="0.5"/>
<ellipse cx="39.0804" cy="38.3562" rx="2.73973" ry="2.79146" transform="rotate(90 39.0804 38.3562)" fill="white" fill-opacity="0.5"/>
<ellipse cx="30.0082" cy="38.3562" rx="2.73973" ry="2.79146" transform="rotate(90 30.0082 38.3562)" fill="white" fill-opacity="0.5"/>
<ellipse cx="20.9358" cy="38.3562" rx="2.73973" ry="2.79146" transform="rotate(90 20.9358 38.3562)" fill="white" fill-opacity="0.5"/>
<ellipse cx="11.8637" cy="38.3562" rx="2.73973" ry="2.79146" transform="rotate(90 11.8637 38.3562)" fill="white" fill-opacity="0.5"/>
<ellipse cx="2.79155" cy="38.3562" rx="2.73973" ry="2.79146" transform="rotate(90 2.79155 38.3562)" fill="white" fill-opacity="0.5"/>
<ellipse cx="75.3693" cy="47.2602" rx="2.73973" ry="2.79146" transform="rotate(90 75.3693 47.2602)" fill="white" fill-opacity="0.5"/>
<ellipse cx="66.2972" cy="47.2602" rx="2.73973" ry="2.79146" transform="rotate(90 66.2972 47.2602)" fill="white" fill-opacity="0.5"/>
<ellipse cx="57.2248" cy="47.2602" rx="2.73973" ry="2.79146" transform="rotate(90 57.2248 47.2602)" fill="white" fill-opacity="0.5"/>
<ellipse cx="48.1528" cy="47.2602" rx="2.73973" ry="2.79146" transform="rotate(90 48.1528 47.2602)" fill="white" fill-opacity="0.5"/>
<ellipse cx="39.0804" cy="47.2602" rx="2.73973" ry="2.79146" transform="rotate(90 39.0804 47.2602)" fill="white" fill-opacity="0.5"/>
<ellipse cx="30.0082" cy="47.2602" rx="2.73973" ry="2.79146" transform="rotate(90 30.0082 47.2602)" fill="white" fill-opacity="0.5"/>
<ellipse cx="20.9358" cy="47.2602" rx="2.73973" ry="2.79146" transform="rotate(90 20.9358 47.2602)" fill="white" fill-opacity="0.5"/>
<ellipse cx="11.8637" cy="47.2602" rx="2.73973" ry="2.79146" transform="rotate(90 11.8637 47.2602)" fill="white" fill-opacity="0.5"/>
<ellipse cx="2.79155" cy="47.2602" rx="2.73973" ry="2.79146" transform="rotate(90 2.79155 47.2602)" fill="white" fill-opacity="0.5"/>
</svg>
