<svg width="158" height="158" viewBox="0 0 158 158" fill="none" xmlns="http://www.w3.org/2000/svg">
<ellipse cx="2.73973" cy="2.75657" rx="2.73973" ry="2.75657" fill="white" fill-opacity="0.5"/>
<ellipse cx="2.73973" cy="11.7154" rx="2.73973" ry="2.75657" fill="white" fill-opacity="0.5"/>
<ellipse cx="2.73973" cy="20.6743" rx="2.73973" ry="2.75657" fill="white" fill-opacity="0.5"/>
<ellipse cx="2.73973" cy="29.6332" rx="2.73973" ry="2.75657" fill="white" fill-opacity="0.5"/>
<ellipse cx="2.73973" cy="38.5919" rx="2.73973" ry="2.75657" fill="white" fill-opacity="0.5"/>
<ellipse cx="2.73973" cy="47.5508" rx="2.73973" ry="2.75657" fill="white" fill-opacity="0.5"/>
<ellipse cx="2.73973" cy="56.5096" rx="2.73973" ry="2.75657" fill="white" fill-opacity="0.5"/>
<ellipse cx="2.73973" cy="65.4685" rx="2.73973" ry="2.75657" fill="white" fill-opacity="0.5"/>
<ellipse cx="2.73973" cy="74.4273" rx="2.73973" ry="2.75657" fill="white" fill-opacity="0.5"/>
<ellipse cx="11.6438" cy="2.75657" rx="2.73973" ry="2.75657" fill="white" fill-opacity="0.5"/>
<ellipse cx="11.6438" cy="11.7153" rx="2.73973" ry="2.75657" fill="white" fill-opacity="0.5"/>
<ellipse cx="11.6438" cy="20.6743" rx="2.73973" ry="2.75657" fill="white" fill-opacity="0.5"/>
<ellipse cx="11.6438" cy="29.633" rx="2.73973" ry="2.75657" fill="white" fill-opacity="0.5"/>
<ellipse cx="11.6438" cy="38.592" rx="2.73973" ry="2.75657" fill="white" fill-opacity="0.5"/>
<ellipse cx="11.6438" cy="47.5508" rx="2.73973" ry="2.75657" fill="white" fill-opacity="0.5"/>
<ellipse cx="11.6438" cy="56.5097" rx="2.73973" ry="2.75657" fill="white" fill-opacity="0.5"/>
<ellipse cx="11.6438" cy="65.4685" rx="2.73973" ry="2.75657" fill="white" fill-opacity="0.5"/>
<ellipse cx="11.6438" cy="74.4272" rx="2.73973" ry="2.75657" fill="white" fill-opacity="0.5"/>
<ellipse cx="20.548" cy="2.75657" rx="2.73973" ry="2.75657" fill="white" fill-opacity="0.5"/>
<ellipse cx="20.548" cy="11.7153" rx="2.73973" ry="2.75657" fill="white" fill-opacity="0.5"/>
<ellipse cx="20.548" cy="20.6743" rx="2.73973" ry="2.75657" fill="white" fill-opacity="0.5"/>
<ellipse cx="20.548" cy="29.633" rx="2.73973" ry="2.75657" fill="white" fill-opacity="0.5"/>
<ellipse cx="20.548" cy="38.592" rx="2.73973" ry="2.75657" fill="white" fill-opacity="0.5"/>
<ellipse cx="20.548" cy="47.5508" rx="2.73973" ry="2.75657" fill="white" fill-opacity="0.5"/>
<ellipse cx="20.548" cy="56.5097" rx="2.73973" ry="2.75657" fill="white" fill-opacity="0.5"/>
<ellipse cx="20.548" cy="65.4685" rx="2.73973" ry="2.75657" fill="white" fill-opacity="0.5"/>
<ellipse cx="20.548" cy="74.4272" rx="2.73973" ry="2.75657" fill="white" fill-opacity="0.5"/>
<ellipse cx="29.452" cy="2.75657" rx="2.73973" ry="2.75657" fill="white" fill-opacity="0.5"/>
<ellipse cx="29.452" cy="11.7153" rx="2.73973" ry="2.75657" fill="white" fill-opacity="0.5"/>
<ellipse cx="29.452" cy="20.6743" rx="2.73973" ry="2.75657" fill="white" fill-opacity="0.5"/>
<ellipse cx="29.452" cy="29.633" rx="2.73973" ry="2.75657" fill="white" fill-opacity="0.5"/>
<ellipse cx="29.452" cy="38.592" rx="2.73973" ry="2.75657" fill="white" fill-opacity="0.5"/>
<ellipse cx="29.452" cy="47.5508" rx="2.73973" ry="2.75657" fill="white" fill-opacity="0.5"/>
<ellipse cx="29.452" cy="56.5097" rx="2.73973" ry="2.75657" fill="white" fill-opacity="0.5"/>
<ellipse cx="29.452" cy="65.4685" rx="2.73973" ry="2.75657" fill="white" fill-opacity="0.5"/>
<ellipse cx="29.452" cy="74.4272" rx="2.73973" ry="2.75657" fill="white" fill-opacity="0.5"/>
<ellipse cx="38.3562" cy="2.75657" rx="2.73973" ry="2.75657" fill="white" fill-opacity="0.5"/>
<ellipse cx="38.3562" cy="11.7153" rx="2.73973" ry="2.75657" fill="white" fill-opacity="0.5"/>
<ellipse cx="38.3562" cy="20.6743" rx="2.73973" ry="2.75657" fill="white" fill-opacity="0.5"/>
<ellipse cx="38.3562" cy="29.633" rx="2.73973" ry="2.75657" fill="white" fill-opacity="0.5"/>
<ellipse cx="38.3562" cy="38.592" rx="2.73973" ry="2.75657" fill="white" fill-opacity="0.5"/>
<ellipse cx="38.3562" cy="47.5508" rx="2.73973" ry="2.75657" fill="white" fill-opacity="0.5"/>
<ellipse cx="38.3562" cy="56.5097" rx="2.73973" ry="2.75657" fill="white" fill-opacity="0.5"/>
<ellipse cx="38.3562" cy="65.4685" rx="2.73973" ry="2.75657" fill="white" fill-opacity="0.5"/>
<ellipse cx="38.3562" cy="74.4272" rx="2.73973" ry="2.75657" fill="white" fill-opacity="0.5"/>
<ellipse cx="47.2602" cy="2.75657" rx="2.73973" ry="2.75657" fill="white" fill-opacity="0.5"/>
<ellipse cx="47.2602" cy="11.7153" rx="2.73973" ry="2.75657" fill="white" fill-opacity="0.5"/>
<ellipse cx="47.2602" cy="20.6743" rx="2.73973" ry="2.75657" fill="white" fill-opacity="0.5"/>
<ellipse cx="47.2602" cy="29.633" rx="2.73973" ry="2.75657" fill="white" fill-opacity="0.5"/>
<ellipse cx="47.2602" cy="38.592" rx="2.73973" ry="2.75657" fill="white" fill-opacity="0.5"/>
<ellipse cx="47.2602" cy="47.5508" rx="2.73973" ry="2.75657" fill="white" fill-opacity="0.5"/>
<ellipse cx="47.2602" cy="56.5097" rx="2.73973" ry="2.75657" fill="white" fill-opacity="0.5"/>
<ellipse cx="47.2602" cy="65.4685" rx="2.73973" ry="2.75657" fill="white" fill-opacity="0.5"/>
<ellipse cx="47.2602" cy="74.4272" rx="2.73973" ry="2.75657" fill="white" fill-opacity="0.5"/>
<ellipse cx="2.73973" cy="83.5726" rx="2.73973" ry="2.75657" fill="white" fill-opacity="0.5"/>
<ellipse cx="2.73973" cy="92.5315" rx="2.73973" ry="2.75657" fill="white" fill-opacity="0.5"/>
<ellipse cx="2.73973" cy="101.49" rx="2.73973" ry="2.75657" fill="white" fill-opacity="0.5"/>
<ellipse cx="2.73973" cy="110.449" rx="2.73973" ry="2.75657" fill="white" fill-opacity="0.5"/>
<ellipse cx="2.73973" cy="119.408" rx="2.73973" ry="2.75657" fill="white" fill-opacity="0.5"/>
<ellipse cx="2.73973" cy="128.367" rx="2.73973" ry="2.75657" fill="white" fill-opacity="0.5"/>
<ellipse cx="2.73973" cy="137.326" rx="2.73973" ry="2.75657" fill="white" fill-opacity="0.5"/>
<ellipse cx="2.73973" cy="146.285" rx="2.73973" ry="2.75657" fill="white" fill-opacity="0.5"/>
<ellipse cx="2.73973" cy="155.243" rx="2.73973" ry="2.75657" fill="white" fill-opacity="0.5"/>
<ellipse cx="11.6438" cy="83.5726" rx="2.73973" ry="2.75657" fill="white" fill-opacity="0.5"/>
<ellipse cx="11.6438" cy="92.5315" rx="2.73973" ry="2.75657" fill="white" fill-opacity="0.5"/>
<ellipse cx="11.6438" cy="101.49" rx="2.73973" ry="2.75657" fill="white" fill-opacity="0.5"/>
<ellipse cx="11.6438" cy="110.449" rx="2.73973" ry="2.75657" fill="white" fill-opacity="0.5"/>
<ellipse cx="11.6438" cy="119.408" rx="2.73973" ry="2.75657" fill="white" fill-opacity="0.5"/>
<ellipse cx="11.6438" cy="128.367" rx="2.73973" ry="2.75657" fill="white" fill-opacity="0.5"/>
<ellipse cx="11.6438" cy="137.326" rx="2.73973" ry="2.75657" fill="white" fill-opacity="0.5"/>
<ellipse cx="11.6438" cy="146.285" rx="2.73973" ry="2.75657" fill="white" fill-opacity="0.5"/>
<ellipse cx="11.6438" cy="155.243" rx="2.73973" ry="2.75657" fill="white" fill-opacity="0.5"/>
<ellipse cx="20.548" cy="83.5726" rx="2.73973" ry="2.75657" fill="white" fill-opacity="0.5"/>
<ellipse cx="20.548" cy="92.5315" rx="2.73973" ry="2.75657" fill="white" fill-opacity="0.5"/>
<ellipse cx="20.548" cy="101.49" rx="2.73973" ry="2.75657" fill="white" fill-opacity="0.5"/>
<ellipse cx="20.548" cy="110.449" rx="2.73973" ry="2.75657" fill="white" fill-opacity="0.5"/>
<ellipse cx="20.548" cy="119.408" rx="2.73973" ry="2.75657" fill="white" fill-opacity="0.5"/>
<ellipse cx="20.548" cy="128.367" rx="2.73973" ry="2.75657" fill="white" fill-opacity="0.5"/>
<ellipse cx="20.548" cy="137.326" rx="2.73973" ry="2.75657" fill="white" fill-opacity="0.5"/>
<ellipse cx="20.548" cy="146.285" rx="2.73973" ry="2.75657" fill="white" fill-opacity="0.5"/>
<ellipse cx="20.548" cy="155.243" rx="2.73973" ry="2.75657" fill="white" fill-opacity="0.5"/>
<ellipse cx="29.452" cy="83.5726" rx="2.73973" ry="2.75657" fill="white" fill-opacity="0.5"/>
<ellipse cx="29.452" cy="92.5315" rx="2.73973" ry="2.75657" fill="white" fill-opacity="0.5"/>
<ellipse cx="29.452" cy="101.49" rx="2.73973" ry="2.75657" fill="white" fill-opacity="0.5"/>
<ellipse cx="29.452" cy="110.449" rx="2.73973" ry="2.75657" fill="white" fill-opacity="0.5"/>
<ellipse cx="29.452" cy="119.408" rx="2.73973" ry="2.75657" fill="white" fill-opacity="0.5"/>
<ellipse cx="29.452" cy="128.367" rx="2.73973" ry="2.75657" fill="white" fill-opacity="0.5"/>
<ellipse cx="29.452" cy="137.326" rx="2.73973" ry="2.75657" fill="white" fill-opacity="0.5"/>
<ellipse cx="29.452" cy="146.285" rx="2.73973" ry="2.75657" fill="white" fill-opacity="0.5"/>
<ellipse cx="29.452" cy="155.243" rx="2.73973" ry="2.75657" fill="white" fill-opacity="0.5"/>
<ellipse cx="38.3562" cy="83.5726" rx="2.73973" ry="2.75657" fill="white" fill-opacity="0.5"/>
<ellipse cx="38.3562" cy="92.5315" rx="2.73973" ry="2.75657" fill="white" fill-opacity="0.5"/>
<ellipse cx="38.3562" cy="101.49" rx="2.73973" ry="2.75657" fill="white" fill-opacity="0.5"/>
<ellipse cx="38.3562" cy="110.449" rx="2.73973" ry="2.75657" fill="white" fill-opacity="0.5"/>
<ellipse cx="38.3562" cy="119.408" rx="2.73973" ry="2.75657" fill="white" fill-opacity="0.5"/>
<ellipse cx="38.3562" cy="128.367" rx="2.73973" ry="2.75657" fill="white" fill-opacity="0.5"/>
<ellipse cx="38.3562" cy="137.326" rx="2.73973" ry="2.75657" fill="white" fill-opacity="0.5"/>
<ellipse cx="38.3562" cy="146.285" rx="2.73973" ry="2.75657" fill="white" fill-opacity="0.5"/>
<ellipse cx="38.3562" cy="155.243" rx="2.73973" ry="2.75657" fill="white" fill-opacity="0.5"/>
<ellipse cx="47.2602" cy="83.5726" rx="2.73973" ry="2.75657" fill="white" fill-opacity="0.5"/>
<ellipse cx="47.2602" cy="92.5315" rx="2.73973" ry="2.75657" fill="white" fill-opacity="0.5"/>
<ellipse cx="47.2602" cy="101.49" rx="2.73973" ry="2.75657" fill="white" fill-opacity="0.5"/>
<ellipse cx="47.2602" cy="110.449" rx="2.73973" ry="2.75657" fill="white" fill-opacity="0.5"/>
<ellipse cx="47.2602" cy="119.408" rx="2.73973" ry="2.75657" fill="white" fill-opacity="0.5"/>
<ellipse cx="47.2602" cy="128.367" rx="2.73973" ry="2.75657" fill="white" fill-opacity="0.5"/>
<ellipse cx="47.2602" cy="137.326" rx="2.73973" ry="2.75657" fill="white" fill-opacity="0.5"/>
<ellipse cx="47.2602" cy="146.285" rx="2.73973" ry="2.75657" fill="white" fill-opacity="0.5"/>
<ellipse cx="47.2602" cy="155.243" rx="2.73973" ry="2.75657" fill="white" fill-opacity="0.5"/>
<ellipse cx="56.7397" cy="2.75657" rx="2.73973" ry="2.75657" fill="white" fill-opacity="0.5"/>
<ellipse cx="56.7397" cy="11.7154" rx="2.73973" ry="2.75657" fill="white" fill-opacity="0.5"/>
<ellipse cx="56.7397" cy="20.6743" rx="2.73973" ry="2.75657" fill="white" fill-opacity="0.5"/>
<ellipse cx="56.7397" cy="29.6332" rx="2.73973" ry="2.75657" fill="white" fill-opacity="0.5"/>
<ellipse cx="56.7397" cy="38.5919" rx="2.73973" ry="2.75657" fill="white" fill-opacity="0.5"/>
<ellipse cx="56.7397" cy="47.5508" rx="2.73973" ry="2.75657" fill="white" fill-opacity="0.5"/>
<ellipse cx="56.7397" cy="56.5096" rx="2.73973" ry="2.75657" fill="white" fill-opacity="0.5"/>
<ellipse cx="56.7397" cy="65.4685" rx="2.73973" ry="2.75657" fill="white" fill-opacity="0.5"/>
<ellipse cx="56.7397" cy="74.4273" rx="2.73973" ry="2.75657" fill="white" fill-opacity="0.5"/>
<ellipse cx="65.6438" cy="2.75657" rx="2.73973" ry="2.75657" fill="white" fill-opacity="0.5"/>
<ellipse cx="65.6438" cy="11.7153" rx="2.73973" ry="2.75657" fill="white" fill-opacity="0.5"/>
<ellipse cx="65.6438" cy="20.6743" rx="2.73973" ry="2.75657" fill="white" fill-opacity="0.5"/>
<ellipse cx="65.6438" cy="29.633" rx="2.73973" ry="2.75657" fill="white" fill-opacity="0.5"/>
<ellipse cx="65.6438" cy="38.592" rx="2.73973" ry="2.75657" fill="white" fill-opacity="0.5"/>
<ellipse cx="65.6438" cy="47.5508" rx="2.73973" ry="2.75657" fill="white" fill-opacity="0.5"/>
<ellipse cx="65.6438" cy="56.5097" rx="2.73973" ry="2.75657" fill="white" fill-opacity="0.5"/>
<ellipse cx="65.6438" cy="65.4685" rx="2.73973" ry="2.75657" fill="white" fill-opacity="0.5"/>
<ellipse cx="65.6438" cy="74.4272" rx="2.73973" ry="2.75657" fill="white" fill-opacity="0.5"/>
<ellipse cx="74.548" cy="2.75657" rx="2.73973" ry="2.75657" fill="white" fill-opacity="0.5"/>
<ellipse cx="74.548" cy="11.7153" rx="2.73973" ry="2.75657" fill="white" fill-opacity="0.5"/>
<ellipse cx="74.548" cy="20.6743" rx="2.73973" ry="2.75657" fill="white" fill-opacity="0.5"/>
<ellipse cx="74.548" cy="29.633" rx="2.73973" ry="2.75657" fill="white" fill-opacity="0.5"/>
<ellipse cx="74.548" cy="38.592" rx="2.73973" ry="2.75657" fill="white" fill-opacity="0.5"/>
<ellipse cx="74.548" cy="47.5508" rx="2.73973" ry="2.75657" fill="white" fill-opacity="0.5"/>
<ellipse cx="74.548" cy="56.5097" rx="2.73973" ry="2.75657" fill="white" fill-opacity="0.5"/>
<ellipse cx="74.548" cy="65.4685" rx="2.73973" ry="2.75657" fill="white" fill-opacity="0.5"/>
<ellipse cx="74.548" cy="74.4272" rx="2.73973" ry="2.75657" fill="white" fill-opacity="0.5"/>
<ellipse cx="83.452" cy="2.75657" rx="2.73973" ry="2.75657" fill="white" fill-opacity="0.5"/>
<ellipse cx="83.452" cy="11.7153" rx="2.73973" ry="2.75657" fill="white" fill-opacity="0.5"/>
<ellipse cx="83.452" cy="20.6743" rx="2.73973" ry="2.75657" fill="white" fill-opacity="0.5"/>
<ellipse cx="83.452" cy="29.633" rx="2.73973" ry="2.75657" fill="white" fill-opacity="0.5"/>
<ellipse cx="83.452" cy="38.592" rx="2.73973" ry="2.75657" fill="white" fill-opacity="0.5"/>
<ellipse cx="83.452" cy="47.5508" rx="2.73973" ry="2.75657" fill="white" fill-opacity="0.5"/>
<ellipse cx="83.452" cy="56.5097" rx="2.73973" ry="2.75657" fill="white" fill-opacity="0.5"/>
<ellipse cx="83.452" cy="65.4685" rx="2.73973" ry="2.75657" fill="white" fill-opacity="0.5"/>
<ellipse cx="83.452" cy="74.4272" rx="2.73973" ry="2.75657" fill="white" fill-opacity="0.5"/>
<ellipse cx="92.3562" cy="2.75657" rx="2.73973" ry="2.75657" fill="white" fill-opacity="0.5"/>
<ellipse cx="92.3562" cy="11.7153" rx="2.73973" ry="2.75657" fill="white" fill-opacity="0.5"/>
<ellipse cx="92.3562" cy="20.6743" rx="2.73973" ry="2.75657" fill="white" fill-opacity="0.5"/>
<ellipse cx="92.3562" cy="29.633" rx="2.73973" ry="2.75657" fill="white" fill-opacity="0.5"/>
<ellipse cx="92.3562" cy="38.592" rx="2.73973" ry="2.75657" fill="white" fill-opacity="0.5"/>
<ellipse cx="92.3562" cy="47.5508" rx="2.73973" ry="2.75657" fill="white" fill-opacity="0.5"/>
<ellipse cx="92.3562" cy="56.5097" rx="2.73973" ry="2.75657" fill="white" fill-opacity="0.5"/>
<ellipse cx="92.3562" cy="65.4685" rx="2.73973" ry="2.75657" fill="white" fill-opacity="0.5"/>
<ellipse cx="92.3562" cy="74.4272" rx="2.73973" ry="2.75657" fill="white" fill-opacity="0.5"/>
<ellipse cx="101.26" cy="2.75657" rx="2.73973" ry="2.75657" fill="white" fill-opacity="0.5"/>
<ellipse cx="101.26" cy="11.7153" rx="2.73973" ry="2.75657" fill="white" fill-opacity="0.5"/>
<ellipse cx="101.26" cy="20.6743" rx="2.73973" ry="2.75657" fill="white" fill-opacity="0.5"/>
<ellipse cx="101.26" cy="29.633" rx="2.73973" ry="2.75657" fill="white" fill-opacity="0.5"/>
<ellipse cx="101.26" cy="38.592" rx="2.73973" ry="2.75657" fill="white" fill-opacity="0.5"/>
<ellipse cx="101.26" cy="47.5508" rx="2.73973" ry="2.75657" fill="white" fill-opacity="0.5"/>
<ellipse cx="101.26" cy="56.5097" rx="2.73973" ry="2.75657" fill="white" fill-opacity="0.5"/>
<ellipse cx="101.26" cy="65.4685" rx="2.73973" ry="2.75657" fill="white" fill-opacity="0.5"/>
<ellipse cx="101.26" cy="74.4272" rx="2.73973" ry="2.75657" fill="white" fill-opacity="0.5"/>
<ellipse cx="56.7397" cy="83.5726" rx="2.73973" ry="2.75657" fill="white" fill-opacity="0.5"/>
<ellipse cx="56.7397" cy="92.5315" rx="2.73973" ry="2.75657" fill="white" fill-opacity="0.5"/>
<ellipse cx="56.7397" cy="101.49" rx="2.73973" ry="2.75657" fill="white" fill-opacity="0.5"/>
<ellipse cx="56.7397" cy="110.449" rx="2.73973" ry="2.75657" fill="white" fill-opacity="0.5"/>
<ellipse cx="56.7397" cy="119.408" rx="2.73973" ry="2.75657" fill="white" fill-opacity="0.5"/>
<ellipse cx="56.7397" cy="128.367" rx="2.73973" ry="2.75657" fill="white" fill-opacity="0.5"/>
<ellipse cx="56.7397" cy="137.326" rx="2.73973" ry="2.75657" fill="white" fill-opacity="0.5"/>
<ellipse cx="56.7397" cy="146.285" rx="2.73973" ry="2.75657" fill="white" fill-opacity="0.5"/>
<ellipse cx="56.7397" cy="155.243" rx="2.73973" ry="2.75657" fill="white" fill-opacity="0.5"/>
<ellipse cx="65.6438" cy="83.5726" rx="2.73973" ry="2.75657" fill="white" fill-opacity="0.5"/>
<ellipse cx="65.6438" cy="92.5315" rx="2.73973" ry="2.75657" fill="white" fill-opacity="0.5"/>
<ellipse cx="65.6438" cy="101.49" rx="2.73973" ry="2.75657" fill="white" fill-opacity="0.5"/>
<ellipse cx="65.6438" cy="110.449" rx="2.73973" ry="2.75657" fill="white" fill-opacity="0.5"/>
<ellipse cx="65.6438" cy="119.408" rx="2.73973" ry="2.75657" fill="white" fill-opacity="0.5"/>
<ellipse cx="65.6438" cy="128.367" rx="2.73973" ry="2.75657" fill="white" fill-opacity="0.5"/>
<ellipse cx="65.6438" cy="137.326" rx="2.73973" ry="2.75657" fill="white" fill-opacity="0.5"/>
<ellipse cx="65.6438" cy="146.285" rx="2.73973" ry="2.75657" fill="white" fill-opacity="0.5"/>
<ellipse cx="65.6438" cy="155.243" rx="2.73973" ry="2.75657" fill="white" fill-opacity="0.5"/>
<ellipse cx="74.548" cy="83.5726" rx="2.73973" ry="2.75657" fill="white" fill-opacity="0.5"/>
<ellipse cx="74.548" cy="92.5315" rx="2.73973" ry="2.75657" fill="white" fill-opacity="0.5"/>
<ellipse cx="74.548" cy="101.49" rx="2.73973" ry="2.75657" fill="white" fill-opacity="0.5"/>
<ellipse cx="74.548" cy="110.449" rx="2.73973" ry="2.75657" fill="white" fill-opacity="0.5"/>
<ellipse cx="74.548" cy="119.408" rx="2.73973" ry="2.75657" fill="white" fill-opacity="0.5"/>
<ellipse cx="74.548" cy="128.367" rx="2.73973" ry="2.75657" fill="white" fill-opacity="0.5"/>
<ellipse cx="74.548" cy="137.326" rx="2.73973" ry="2.75657" fill="white" fill-opacity="0.5"/>
<ellipse cx="74.548" cy="146.285" rx="2.73973" ry="2.75657" fill="white" fill-opacity="0.5"/>
<ellipse cx="74.548" cy="155.243" rx="2.73973" ry="2.75657" fill="white" fill-opacity="0.5"/>
<ellipse cx="83.452" cy="83.5726" rx="2.73973" ry="2.75657" fill="white" fill-opacity="0.5"/>
<ellipse cx="83.452" cy="92.5315" rx="2.73973" ry="2.75657" fill="white" fill-opacity="0.5"/>
<ellipse cx="83.452" cy="101.49" rx="2.73973" ry="2.75657" fill="white" fill-opacity="0.5"/>
<ellipse cx="83.452" cy="110.449" rx="2.73973" ry="2.75657" fill="white" fill-opacity="0.5"/>
<ellipse cx="83.452" cy="119.408" rx="2.73973" ry="2.75657" fill="white" fill-opacity="0.5"/>
<ellipse cx="83.452" cy="128.367" rx="2.73973" ry="2.75657" fill="white" fill-opacity="0.5"/>
<ellipse cx="83.452" cy="137.326" rx="2.73973" ry="2.75657" fill="white" fill-opacity="0.5"/>
<ellipse cx="83.452" cy="146.285" rx="2.73973" ry="2.75657" fill="white" fill-opacity="0.5"/>
<ellipse cx="83.452" cy="155.243" rx="2.73973" ry="2.75657" fill="white" fill-opacity="0.5"/>
<ellipse cx="92.3562" cy="83.5726" rx="2.73973" ry="2.75657" fill="white" fill-opacity="0.5"/>
<ellipse cx="92.3562" cy="92.5315" rx="2.73973" ry="2.75657" fill="white" fill-opacity="0.5"/>
<ellipse cx="92.3562" cy="101.49" rx="2.73973" ry="2.75657" fill="white" fill-opacity="0.5"/>
<ellipse cx="92.3562" cy="110.449" rx="2.73973" ry="2.75657" fill="white" fill-opacity="0.5"/>
<ellipse cx="92.3562" cy="119.408" rx="2.73973" ry="2.75657" fill="white" fill-opacity="0.5"/>
<ellipse cx="92.3562" cy="128.367" rx="2.73973" ry="2.75657" fill="white" fill-opacity="0.5"/>
<ellipse cx="92.3562" cy="137.326" rx="2.73973" ry="2.75657" fill="white" fill-opacity="0.5"/>
<ellipse cx="92.3562" cy="146.285" rx="2.73973" ry="2.75657" fill="white" fill-opacity="0.5"/>
<ellipse cx="92.3562" cy="155.243" rx="2.73973" ry="2.75657" fill="white" fill-opacity="0.5"/>
<ellipse cx="101.26" cy="83.5726" rx="2.73973" ry="2.75657" fill="white" fill-opacity="0.5"/>
<ellipse cx="101.26" cy="92.5315" rx="2.73973" ry="2.75657" fill="white" fill-opacity="0.5"/>
<ellipse cx="101.26" cy="101.49" rx="2.73973" ry="2.75657" fill="white" fill-opacity="0.5"/>
<ellipse cx="101.26" cy="110.449" rx="2.73973" ry="2.75657" fill="white" fill-opacity="0.5"/>
<ellipse cx="101.26" cy="119.408" rx="2.73973" ry="2.75657" fill="white" fill-opacity="0.5"/>
<ellipse cx="101.26" cy="128.367" rx="2.73973" ry="2.75657" fill="white" fill-opacity="0.5"/>
<ellipse cx="101.26" cy="137.326" rx="2.73973" ry="2.75657" fill="white" fill-opacity="0.5"/>
<ellipse cx="101.26" cy="146.285" rx="2.73973" ry="2.75657" fill="white" fill-opacity="0.5"/>
<ellipse cx="101.26" cy="155.243" rx="2.73973" ry="2.75657" fill="white" fill-opacity="0.5"/>
<ellipse cx="110.74" cy="2.75657" rx="2.73973" ry="2.75657" fill="white" fill-opacity="0.5"/>
<ellipse cx="110.74" cy="11.7154" rx="2.73973" ry="2.75657" fill="white" fill-opacity="0.5"/>
<ellipse cx="110.74" cy="20.6743" rx="2.73973" ry="2.75657" fill="white" fill-opacity="0.5"/>
<ellipse cx="110.74" cy="29.6332" rx="2.73973" ry="2.75657" fill="white" fill-opacity="0.5"/>
<ellipse cx="110.74" cy="38.5919" rx="2.73973" ry="2.75657" fill="white" fill-opacity="0.5"/>
<ellipse cx="110.74" cy="47.5508" rx="2.73973" ry="2.75657" fill="white" fill-opacity="0.5"/>
<ellipse cx="110.74" cy="56.5096" rx="2.73973" ry="2.75657" fill="white" fill-opacity="0.5"/>
<ellipse cx="110.74" cy="65.4685" rx="2.73973" ry="2.75657" fill="white" fill-opacity="0.5"/>
<ellipse cx="110.74" cy="74.4273" rx="2.73973" ry="2.75657" fill="white" fill-opacity="0.5"/>
<ellipse cx="119.644" cy="2.75657" rx="2.73973" ry="2.75657" fill="white" fill-opacity="0.5"/>
<ellipse cx="119.644" cy="11.7153" rx="2.73973" ry="2.75657" fill="white" fill-opacity="0.5"/>
<ellipse cx="119.644" cy="20.6743" rx="2.73973" ry="2.75657" fill="white" fill-opacity="0.5"/>
<ellipse cx="119.644" cy="29.633" rx="2.73973" ry="2.75657" fill="white" fill-opacity="0.5"/>
<ellipse cx="119.644" cy="38.592" rx="2.73973" ry="2.75657" fill="white" fill-opacity="0.5"/>
<ellipse cx="119.644" cy="47.5508" rx="2.73973" ry="2.75657" fill="white" fill-opacity="0.5"/>
<ellipse cx="119.644" cy="56.5097" rx="2.73973" ry="2.75657" fill="white" fill-opacity="0.5"/>
<ellipse cx="119.644" cy="65.4685" rx="2.73973" ry="2.75657" fill="white" fill-opacity="0.5"/>
<ellipse cx="119.644" cy="74.4272" rx="2.73973" ry="2.75657" fill="white" fill-opacity="0.5"/>
<ellipse cx="128.548" cy="2.75657" rx="2.73973" ry="2.75657" fill="white" fill-opacity="0.5"/>
<ellipse cx="128.548" cy="11.7153" rx="2.73973" ry="2.75657" fill="white" fill-opacity="0.5"/>
<ellipse cx="128.548" cy="20.6743" rx="2.73973" ry="2.75657" fill="white" fill-opacity="0.5"/>
<ellipse cx="128.548" cy="29.633" rx="2.73973" ry="2.75657" fill="white" fill-opacity="0.5"/>
<ellipse cx="128.548" cy="38.592" rx="2.73973" ry="2.75657" fill="white" fill-opacity="0.5"/>
<ellipse cx="128.548" cy="47.5508" rx="2.73973" ry="2.75657" fill="white" fill-opacity="0.5"/>
<ellipse cx="128.548" cy="56.5097" rx="2.73973" ry="2.75657" fill="white" fill-opacity="0.5"/>
<ellipse cx="128.548" cy="65.4685" rx="2.73973" ry="2.75657" fill="white" fill-opacity="0.5"/>
<ellipse cx="128.548" cy="74.4272" rx="2.73973" ry="2.75657" fill="white" fill-opacity="0.5"/>
<ellipse cx="137.452" cy="2.75657" rx="2.73973" ry="2.75657" fill="white" fill-opacity="0.5"/>
<ellipse cx="137.452" cy="11.7153" rx="2.73973" ry="2.75657" fill="white" fill-opacity="0.5"/>
<ellipse cx="137.452" cy="20.6743" rx="2.73973" ry="2.75657" fill="white" fill-opacity="0.5"/>
<ellipse cx="137.452" cy="29.633" rx="2.73973" ry="2.75657" fill="white" fill-opacity="0.5"/>
<ellipse cx="137.452" cy="38.592" rx="2.73973" ry="2.75657" fill="white" fill-opacity="0.5"/>
<ellipse cx="137.452" cy="47.5508" rx="2.73973" ry="2.75657" fill="white" fill-opacity="0.5"/>
<ellipse cx="137.452" cy="56.5097" rx="2.73973" ry="2.75657" fill="white" fill-opacity="0.5"/>
<ellipse cx="137.452" cy="65.4685" rx="2.73973" ry="2.75657" fill="white" fill-opacity="0.5"/>
<ellipse cx="137.452" cy="74.4272" rx="2.73973" ry="2.75657" fill="white" fill-opacity="0.5"/>
<ellipse cx="146.356" cy="2.75657" rx="2.73973" ry="2.75657" fill="white" fill-opacity="0.5"/>
<ellipse cx="146.356" cy="11.7153" rx="2.73973" ry="2.75657" fill="white" fill-opacity="0.5"/>
<ellipse cx="146.356" cy="20.6743" rx="2.73973" ry="2.75657" fill="white" fill-opacity="0.5"/>
<ellipse cx="146.356" cy="29.633" rx="2.73973" ry="2.75657" fill="white" fill-opacity="0.5"/>
<ellipse cx="146.356" cy="38.592" rx="2.73973" ry="2.75657" fill="white" fill-opacity="0.5"/>
<ellipse cx="146.356" cy="47.5508" rx="2.73973" ry="2.75657" fill="white" fill-opacity="0.5"/>
<ellipse cx="146.356" cy="56.5097" rx="2.73973" ry="2.75657" fill="white" fill-opacity="0.5"/>
<ellipse cx="146.356" cy="65.4685" rx="2.73973" ry="2.75657" fill="white" fill-opacity="0.5"/>
<ellipse cx="146.356" cy="74.4272" rx="2.73973" ry="2.75657" fill="white" fill-opacity="0.5"/>
<ellipse cx="155.26" cy="2.75657" rx="2.73973" ry="2.75657" fill="white" fill-opacity="0.5"/>
<ellipse cx="155.26" cy="11.7153" rx="2.73973" ry="2.75657" fill="white" fill-opacity="0.5"/>
<ellipse cx="155.26" cy="20.6743" rx="2.73973" ry="2.75657" fill="white" fill-opacity="0.5"/>
<ellipse cx="155.26" cy="29.633" rx="2.73973" ry="2.75657" fill="white" fill-opacity="0.5"/>
<ellipse cx="155.26" cy="38.592" rx="2.73973" ry="2.75657" fill="white" fill-opacity="0.5"/>
<ellipse cx="155.26" cy="47.5508" rx="2.73973" ry="2.75657" fill="white" fill-opacity="0.5"/>
<ellipse cx="155.26" cy="56.5097" rx="2.73973" ry="2.75657" fill="white" fill-opacity="0.5"/>
<ellipse cx="155.26" cy="65.4685" rx="2.73973" ry="2.75657" fill="white" fill-opacity="0.5"/>
<ellipse cx="155.26" cy="74.4272" rx="2.73973" ry="2.75657" fill="white" fill-opacity="0.5"/>
<ellipse cx="110.74" cy="83.5726" rx="2.73973" ry="2.75657" fill="white" fill-opacity="0.5"/>
<ellipse cx="110.74" cy="92.5315" rx="2.73973" ry="2.75657" fill="white" fill-opacity="0.5"/>
<ellipse cx="110.74" cy="101.49" rx="2.73973" ry="2.75657" fill="white" fill-opacity="0.5"/>
<ellipse cx="110.74" cy="110.449" rx="2.73973" ry="2.75657" fill="white" fill-opacity="0.5"/>
<ellipse cx="110.74" cy="119.408" rx="2.73973" ry="2.75657" fill="white" fill-opacity="0.5"/>
<ellipse cx="110.74" cy="128.367" rx="2.73973" ry="2.75657" fill="white" fill-opacity="0.5"/>
<ellipse cx="110.74" cy="137.326" rx="2.73973" ry="2.75657" fill="white" fill-opacity="0.5"/>
<ellipse cx="110.74" cy="146.285" rx="2.73973" ry="2.75657" fill="white" fill-opacity="0.5"/>
<ellipse cx="110.74" cy="155.243" rx="2.73973" ry="2.75657" fill="white" fill-opacity="0.5"/>
<ellipse cx="119.644" cy="83.5726" rx="2.73973" ry="2.75657" fill="white" fill-opacity="0.5"/>
<ellipse cx="119.644" cy="92.5315" rx="2.73973" ry="2.75657" fill="white" fill-opacity="0.5"/>
<ellipse cx="119.644" cy="101.49" rx="2.73973" ry="2.75657" fill="white" fill-opacity="0.5"/>
<ellipse cx="119.644" cy="110.449" rx="2.73973" ry="2.75657" fill="white" fill-opacity="0.5"/>
<ellipse cx="119.644" cy="119.408" rx="2.73973" ry="2.75657" fill="white" fill-opacity="0.5"/>
<ellipse cx="119.644" cy="128.367" rx="2.73973" ry="2.75657" fill="white" fill-opacity="0.5"/>
<ellipse cx="119.644" cy="137.326" rx="2.73973" ry="2.75657" fill="white" fill-opacity="0.5"/>
<ellipse cx="119.644" cy="146.285" rx="2.73973" ry="2.75657" fill="white" fill-opacity="0.5"/>
<ellipse cx="119.644" cy="155.243" rx="2.73973" ry="2.75657" fill="white" fill-opacity="0.5"/>
<ellipse cx="128.548" cy="83.5726" rx="2.73973" ry="2.75657" fill="white" fill-opacity="0.5"/>
<ellipse cx="128.548" cy="92.5315" rx="2.73973" ry="2.75657" fill="white" fill-opacity="0.5"/>
<ellipse cx="128.548" cy="101.49" rx="2.73973" ry="2.75657" fill="white" fill-opacity="0.5"/>
<ellipse cx="128.548" cy="110.449" rx="2.73973" ry="2.75657" fill="white" fill-opacity="0.5"/>
<ellipse cx="128.548" cy="119.408" rx="2.73973" ry="2.75657" fill="white" fill-opacity="0.5"/>
<ellipse cx="128.548" cy="128.367" rx="2.73973" ry="2.75657" fill="white" fill-opacity="0.5"/>
<ellipse cx="128.548" cy="137.326" rx="2.73973" ry="2.75657" fill="white" fill-opacity="0.5"/>
<ellipse cx="128.548" cy="146.285" rx="2.73973" ry="2.75657" fill="white" fill-opacity="0.5"/>
<ellipse cx="128.548" cy="155.243" rx="2.73973" ry="2.75657" fill="white" fill-opacity="0.5"/>
<ellipse cx="137.452" cy="83.5726" rx="2.73973" ry="2.75657" fill="white" fill-opacity="0.5"/>
<ellipse cx="137.452" cy="92.5315" rx="2.73973" ry="2.75657" fill="white" fill-opacity="0.5"/>
<ellipse cx="137.452" cy="101.49" rx="2.73973" ry="2.75657" fill="white" fill-opacity="0.5"/>
<ellipse cx="137.452" cy="110.449" rx="2.73973" ry="2.75657" fill="white" fill-opacity="0.5"/>
<ellipse cx="137.452" cy="119.408" rx="2.73973" ry="2.75657" fill="white" fill-opacity="0.5"/>
<ellipse cx="137.452" cy="128.367" rx="2.73973" ry="2.75657" fill="white" fill-opacity="0.5"/>
<ellipse cx="137.452" cy="137.326" rx="2.73973" ry="2.75657" fill="white" fill-opacity="0.5"/>
<ellipse cx="137.452" cy="146.285" rx="2.73973" ry="2.75657" fill="white" fill-opacity="0.5"/>
<ellipse cx="137.452" cy="155.243" rx="2.73973" ry="2.75657" fill="white" fill-opacity="0.5"/>
<ellipse cx="146.356" cy="83.5726" rx="2.73973" ry="2.75657" fill="white" fill-opacity="0.5"/>
<ellipse cx="146.356" cy="92.5315" rx="2.73973" ry="2.75657" fill="white" fill-opacity="0.5"/>
<ellipse cx="146.356" cy="101.49" rx="2.73973" ry="2.75657" fill="white" fill-opacity="0.5"/>
<ellipse cx="146.356" cy="110.449" rx="2.73973" ry="2.75657" fill="white" fill-opacity="0.5"/>
<ellipse cx="146.356" cy="119.408" rx="2.73973" ry="2.75657" fill="white" fill-opacity="0.5"/>
<ellipse cx="146.356" cy="128.367" rx="2.73973" ry="2.75657" fill="white" fill-opacity="0.5"/>
<ellipse cx="146.356" cy="137.326" rx="2.73973" ry="2.75657" fill="white" fill-opacity="0.5"/>
<ellipse cx="146.356" cy="146.285" rx="2.73973" ry="2.75657" fill="white" fill-opacity="0.5"/>
<ellipse cx="146.356" cy="155.243" rx="2.73973" ry="2.75657" fill="white" fill-opacity="0.5"/>
<ellipse cx="155.26" cy="83.5726" rx="2.73973" ry="2.75657" fill="white" fill-opacity="0.5"/>
<ellipse cx="155.26" cy="92.5315" rx="2.73973" ry="2.75657" fill="white" fill-opacity="0.5"/>
<ellipse cx="155.26" cy="101.49" rx="2.73973" ry="2.75657" fill="white" fill-opacity="0.5"/>
<ellipse cx="155.26" cy="110.449" rx="2.73973" ry="2.75657" fill="white" fill-opacity="0.5"/>
<ellipse cx="155.26" cy="119.408" rx="2.73973" ry="2.75657" fill="white" fill-opacity="0.5"/>
<ellipse cx="155.26" cy="128.367" rx="2.73973" ry="2.75657" fill="white" fill-opacity="0.5"/>
<ellipse cx="155.26" cy="137.326" rx="2.73973" ry="2.75657" fill="white" fill-opacity="0.5"/>
<ellipse cx="155.26" cy="146.285" rx="2.73973" ry="2.75657" fill="white" fill-opacity="0.5"/>
<ellipse cx="155.26" cy="155.243" rx="2.73973" ry="2.75657" fill="white" fill-opacity="0.5"/>
</svg>
