<svg width="51" height="50" viewBox="0 0 51 50" fill="none" xmlns="http://www.w3.org/2000/svg">
<path fill-rule="evenodd" clip-rule="evenodd" d="M0.134033 25C0.134033 31.6304 2.76796 37.9893 7.45636 42.6777C12.1448 47.3661 18.5036 50 25.134 50C31.7644 50 38.1233 47.3661 42.8117 42.6777C47.5001 37.9893 50.134 31.6304 50.134 25C50.134 18.3696 47.5001 12.0107 42.8117 7.32233C38.1233 2.63392 31.7644 0 25.134 0C18.5036 0 12.1448 2.63392 7.45636 7.32233C2.76796 12.0107 0.134033 18.3696 0.134033 25ZM26.2403 33.2687C26.5337 33.5621 26.6985 33.9601 26.6985 34.375C26.6985 34.7899 26.5337 35.1879 26.2403 35.4813C25.9469 35.7746 25.549 35.9395 25.134 35.9395C24.7191 35.9395 24.3212 35.7746 24.0278 35.4813L14.6528 26.1062C14.5073 25.9611 14.3918 25.7887 14.3131 25.5989C14.2343 25.409 14.1937 25.2055 14.1937 25C14.1937 24.7945 14.2343 24.591 14.3131 24.4011C14.3918 24.2113 14.5073 24.0389 14.6528 23.8937L24.0278 14.5187C24.1731 14.3735 24.3455 14.2582 24.5353 14.1796C24.7251 14.101 24.9286 14.0605 25.134 14.0605C25.3395 14.0605 25.5429 14.101 25.7327 14.1796C25.9225 14.2582 26.095 14.3735 26.2403 14.5187C26.3856 14.664 26.5008 14.8365 26.5794 15.0263C26.658 15.2161 26.6985 15.4195 26.6985 15.625C26.6985 15.8304 26.658 16.0339 26.5794 16.2237C26.5008 16.4135 26.3856 16.586 26.2403 16.7312L19.5309 23.4375H34.509C34.9234 23.4375 35.3209 23.6021 35.6139 23.8951C35.9069 24.1882 36.0715 24.5856 36.0715 25C36.0715 25.4144 35.9069 25.8118 35.6139 26.1049C35.3209 26.3979 34.9234 26.5625 34.509 26.5625H19.5309L26.2403 33.2687Z" fill="white"/>
</svg>
